<svg version="1.1"
     xmlns="http://www.w3.org/2000/svg" xmlns:xlink="http://www.w3.org/1999/xlink"
     x="0px" y="0px"
     width="100%"
     height="100%"
     viewBox="0 0 67 67"
     xml:space="preserve"
>
    <path fill="#1D3B41" d="M21.125,46.584l-8.893-5.124v10.266l-6.198,3.583V10.436l38.854,22.429l-5.627,3.251l6.035,3.479l11.646-6.73L0,0v55.305c0,5.766,4.674,10.44,10.439,10.44h43.932L21.129,46.583L21.125,46.584z" />
    <path fill="#00A89C" d="M12.069,0l42.138,24.306V14.035l-0.016-0.006l6.215-3.593v44.873L21.552,32.88l5.626-3.252l-6.035-3.479L9.498,32.88L66.44,65.746V10.44C66.44,4.674,61.766,0,56,0H12.069z"/>
</svg>