<svg version="1.0" id="Layer_1" xmlns="http://www.w3.org/2000/svg" xmlns:xlink="http://www.w3.org/1999/xlink" x="0px" y="0px"
     viewBox="0 0 150 150" enable-background="new 0 0 150 150" xml:space="preserve">
<g>
    <path fill="#DCE1DE" d="M137.8,41.7l-21.7-0.2c-0.9-3.1-2.8-5.7-5.3-7.4l8.5-14.8c0.1,0,0.1,0,0.2,0c1.6,0.2,2.9-1.3,2.9-3.2
		c0.1-2-1.1-3.7-2.7-4c-1.6-0.2-2.9,1.2-3,3.2c0,0.8,0.2,1.6,0.5,2.2l-8.9,15.3c-1-0.4-2.2-0.6-3.3-0.7c-1.1-0.1-2.2,0.1-3.2,0.3
		L93.5,15c0.5-0.6,0.8-1.4,0.8-2.3c0.1-2.2-1.5-4.3-3.5-4.6c-2.1-0.3-3.8,1.3-3.8,3.6c0,2.3,1.6,4.3,3.7,4.6c0.1,0,0.1,0,0.2,0
		l8.3,17.1c-3,1.6-5.5,4.3-6.9,7.8L57,40.8c-3.3,0-6,2.5-6,5.6v7.1c1-0.2,1.4-0.4,2.2-0.6c2.9-0.7,5.6-1.2,8.3-1.5
		c0.8-0.8,1.9-1.4,3.1-1.4l58.3-1.4c1.4,0,2.4,1.4,2.4,3.1l-0.9,21c0.4,0.2,0.7,0.3,0.9,0.4c-0.2,0-0.2,0.6-0.1,0.2
		c0.2,0.1,0.4,0.1,0.7,0.2c0,0.1-0.1,0.2-0.1,0.3c-0.2-0.1-0.4-0.2-0.6-0.3c0,0.5,0.3,0.7,0.5,0.9c0,0.2,0,0.5,0,0.7
		c-0.3-0.2-0.5-0.3-0.6-0.1c-0.4,0.1-0.6-0.1-0.8-0.3l-0.6,14.1c-0.1,1.7-1.2,3.3-2.6,3.6l-31.8,7.5c0.2,0,0.5,0.1,0.8,0.2
		c0.1,0,0.2,0,0.2,0c0,0,0-0.1,0-0.1c0,0.1,0,0.1,0,0.1c0,0.1,0,0.1,0,0.1c0,0,0.1,0,0.1,0c0.1,0,0.3,0,0.5,0.1
		c0-0.1-0.1-0.2-0.1-0.3c-0.1-0.1,0-0.1,0,0c0,0.1,0.1,0.2,0.2,0.3c0.4,0.5,0.2,0.3-0.1,0c0,0-0.2,0-0.5-0.1c-0.1,0-0.1,0-0.1,0
		c-0.1,0-0.2-0.1-0.3-0.1c-0.2,0-0.5-0.1-0.9-0.2l-0.1,0c0,0-0.1,0-0.1,0l0,0c-0.1,0.1-0.2,0.1-0.3,0.1c0,0,0,0,0,0l-1.2,0.3
		c0,0,0,0,0,0.1c1.2,0,0.7,0,1,0.3c-0.2,0.2,0.7,0.2,1.1,0.1c-0.1,0.2-0.5,0.4-1.1,0.4c0.1,0.1,0.3,0.2,0.3,0.5
		c0.4,0.9-0.8,0.1-0.4,0.4c-0.1-0.1-0.1-0.1-0.2-0.1c-1,0-0.9,0.6-1.6-0.2c-0.1,0-0.3,0.1-0.2,0.6c-0.7-0.3-0.6-0.2-0.9-0.4
		c-0.5-0.4-0.5,0.1-1-0.6c0.3-0.4,0.5,0.2,1,0.1c-0.5-0.8-0.7-0.3-1.2-0.4l-20.4,4.8c-1.8,0.4-3.4-0.4-3.9-1.8
		c-2,0.8-4.1,1.5-6.3,2.1c-1,0.3-1.9,0.5-2.9,0.8v5.6c0,2.9,2.6,4.6,5.7,3.7l78.5-21c1.5-0.4,2.9-2.4,3-4.4l2.3-45.3
		C140.5,43.4,139.4,41.7,137.8,41.7z M131.7,89.5c-1.8,0.4-3.2-1.1-3.1-3.5c0.1-2.4,1.7-4.6,3.5-4.9c1.8-0.3,3.1,1.2,3,3.5
		C135,86.9,133.5,89.1,131.7,89.5z M132.4,76.1c-1.8,0.3-3.2-1.4-3.1-3.8c0.1-2.4,1.7-4.5,3.5-4.7c1.8-0.2,3.1,1.5,3,3.8
		C135.7,73.7,134.1,75.8,132.4,76.1z"/>

    <path fill="#ED3040" d="M40.9,67.4c0.6-0.3,1.3-0.7,1.9-0.9c1.3-0.5,2.6-1.1,3.9-1.5c1.2-0.4,2.5-0.6,3.9-1.4
		c1.3-0.4,2.7-1.2,4-1.2c0.3,0,0.6-0.1,1-0.1c0.4-0.1,0.8-0.2,1-0.4c0.7,0,1.7-0.5,2.5-0.6c0,0,0.2-0.1,0.3-0.1
		c0.2,0,0.4-0.1,0.5-0.1c0,0,0,0,0,0c0.1,0,0.5-0.2,0.5-0.1c0.1,0,0.2,0,0.4,0c0.3,0,0.5-0.1,0.8-0.1c0.2,0,0.4-0.1,0.6-0.1
		c0.1,0,0.2,0,0.3-0.1c1.5-0.2,2.8-0.3,4.1-0.6c1.5-0.1,2.7-0.5,4.1-0.4c1.3,0,2.8-0.2,4.2-0.2c0.4,0.2,1.1,0.6,1.4,0.6
		c0.1,0.2,0.6,0.3,0.9,0.3c0.1,0,0.3,0,0.4-0.1c-0.1,0-0.2,0.1-0.4,0.1c0,0,0,0,0,0c0.5,0,1.1,0,1.7,0c0.8-0.1,1.6-0.1,2.5,0
		c0.1,0,0.2,0,0.4,0.1c0.3,0,0.6,0.1,0.8,0.1c1,0.2,2.2,0.1,3.7,0.3c1.1,0.2,2.6,0.4,3.7,0.4c0.9,0.2,2,0.4,3.1,0.6
		c0.5,0.1,1,0.3,1.5,0.4c0.5,0.1,1,0.2,1.4,0.3c0.4,0.2,0.6,0.3,1.4,0.4c0.3,0.1,0.8,0.2,1.3,0.4c0.2-0.3-0.2,0-0.1-0.1
		c0.1-0.3,0.2-0.3,0.2-0.3c-0.3-0.1-0.5-0.1-0.7-0.2c-0.5-0.2-1.2-0.3-1.8-0.5c-1.3-0.3-2.3-0.7-3.6-0.9c0,0,0.1,0,0-0.1
		c1,0.2,1.8,0.4,2.6,0.6c0.4,0.1,0.8,0.2,1.3,0.3c0.4,0.1,0.9,0.2,1.3,0.3c0.1,0.1-0.1,0.1,0.1,0.1c0,0,0.1,0.1,0.1,0
		c0.3,0,0.8,0.2,1.1,0.3c0.3,0.1,0.8,0.3,1.2,0.3c0,0.1,0.9,0.3,0.9,0.3c-0.6-0.1-0.7-0.1-0.1,0c0.1,0.1,0.6,0.3,0.5,0.1
		c0.5,0.2,1.1,0.3,1.4,0.6c0.6,0.3,0.5,0.5,1,0.8c-0.3-0.8,1.4,0.9,1.4,0.2c0,0,0,0-0.1,0c-0.3,0.2-0.8-0.2-0.6-0.3
		c0.1,0.1,0.4,0.3,0.6,0.3c-0.1-0.1,0-0.1,0,0c0,0,0,0,0,0c0-0.1,0-0.2,0,0c0.1,0,0.1,0,0,0c0,0,0,0,0,0c0.8,0.4,1.4,1,1.9,1
		c0.6,0.1,0.5,0.1,0.2-0.3c0.4,0.2,0.8,0.4,1.1,0.5c0.4,0.2,0.7,0.3,1,0.5c0.3,0.1,0.7,0.2,1,0.5c0.4,0.2,0.6,0.4,1.1,0.4
		c0.4,0.1,0.8,0.3,1.2,0.5c0.4,0.1,0.8,0.4,1.3,0.7c-0.3-0.2-0.7-0.4-0.9-0.6c-0.4-0.2-0.7-0.3-1.1-0.6c-0.4-0.2-0.7-0.4-1.1-0.5
		c-0.5-0.2-0.7-0.3-1.1-0.5c-0.7-0.4-1.5-0.6-1.6-1c0.4,0.2,0.8,0.4,1.2,0.5c0.4,0.2,0.9,0.3,1.2,0.6c0.4,0.2,0.8,0.5,1.3,0.7
		c0.4,0.2,0.8,0.4,1.2,0.5c0.9,0.4,1.4,0.7,2,0.7c-0.4-0.1-0.6-0.5-1.1-0.5c-0.3-0.2-0.7-0.4-1.2-0.5c-0.4,0-0.9-0.4-1.1-0.5
		c-0.3-0.1-0.5-0.2-0.8-0.4c0.4,0.1,0.8,0.3,1,0.4c0.4,0.2,0.9,0.2,1.3,0.5c-0.6-0.2-1-0.7-1.6-1c0,0,0.4,0.2,0.3,0.1
		c0.1,0-0.1-0.1-0.3-0.3c0.5,0.3,1,0.4,1.5,0.7c0.6,0.2,1,0.4,1.5,0.8c-0.5-0.3-0.9-0.4-1.3-0.4c0.7,0.3,1,0.6,1.6,0.7
		c0.6,0.3,1,0.5,1.7,0.8c0.5,0.3,1.5,0.8,2.2,1.3c0.9,0.2,1.6,0.8,2.2,1.3c0.8,0.7,1.1,0.9,2.1,1.2c0.2,0.1,0.3,0.3,0.5,0.4
		c0,0,0.1,0.1,0.1,0.1c0,0-0.1,0-0.1-0.1c-0.8-0.5-1.7-0.7-2.5-1.5c-1.1-0.4-1.8-1.2-2.7-1.5c-0.8-0.5-1.9-0.7-2.6-1
		c0.2,0.2,0.8,0.3,1.2,0.5c0.5,0.2,1.1,0.6,1.5,0.8c0.8,0.5,1.4,0.9,0.6,0.7c0.3,0.4,0.7,0.6,1.2,0.8c0.4,0.2,0.9,0.5,1.2,0.9
		c-0.6,0.1-0.7-0.9-1.6-0.9c0.4,1.2,1,1,1.4,1.3c0.1,0.2,0.5,0.3,1.3,1.1c0.3,0.5,0.3,0.2,0.5-0.4c0.1,0.1,0.3,0.3,0.4,0.5
		c0.2,0.2,0.4,0.4,0.8,0.3c0-0.1,0.3,0,0.6,0.1c0-0.2,0-0.5,0-0.7c-0.2-0.2-0.6-0.4-0.5-0.9c0.2,0.1,0.4,0.2,0.6,0.3
		c0-0.1,0-0.2,0.1-0.3c-0.3-0.1-0.5-0.2-0.7-0.2c-0.1,0.4-0.1-0.1,0.1-0.2c-0.1-0.1-0.5-0.2-0.9-0.4c0,0-0.1,0-0.1-0.1
		c-0.2-0.1-0.6-0.3-1-0.6c-1.1-0.7-1.8-1.2-2.7-1.7c-0.8-0.5-1.6-1-2.6-1.7c-0.9-0.4-1.6-1.3-2.5-1.8c0.5,0.3,1.2,0.6,1.9,1.1
		c0.8,0.4,1.2,0.7,1.7,0.7c0.5,0.4,1.2,0.7,1.8,0.8c-0.5-0.5-0.8-0.5-1.3-1c-0.4-0.2-1.1-0.5-1.9-0.9c0,0,0,0,0,0.1
		c-0.7-0.4-1.1-0.7-1.5-1c-0.5-0.4-1-0.7-1.7-1.1c0.3-0.1,1.1,0.4,1.5,0.6c0,0.2-0.1,0.2,0,0.2c0.3,0,1.3,0.2,2.2,0.6
		c0.8,0.4,1.5,0.9,1.3,1.2c0.5,0,1.3,0.5,1.7,0.5c0.8,0.2,1.3,0.6,1.3,0.1c-0.4-0.2-1.2-0.5-1.7-0.6c-0.7-0.2-1.2-0.4-1.5-0.9
		c1.1,0.4,2.2,0.8,3.3,1.4c0.4,0.2,0.8,0.5,1.1,0.8c-0.1-0.6-0.2-1.1-0.2-1.7c-0.4-0.2-0.8-0.4-1.1-0.6c0.1-0.3-0.1-0.6-0.4-0.9
		c0.4,0.8-0.4,0.3-0.7,0.5c-0.4-0.3-0.9-0.7-1-0.8c0.4,0.2,0.9,0.4,1.4,0.6c-0.7-0.4-1.1-0.5-1.8-1.1c0.3,0,0.3-0.2,0.2-0.4
		c0.7,0.3,1.7,0.9,2.8,1.5c0.3,0.2,0.6,0.4,0.8,0.5c0-0.1,0.1-0.3,0.1-0.4c-0.5-0.2-0.9-0.4-1.3-0.5c0.1-0.4-0.3-0.6-0.8-0.7
		c-0.6-0.2-1.2-0.4-1.4-0.8c0.7,0.1,1.6,0.6,2.4,1.1c0.4,0.2,0.7,0.4,1.1,0.6c0-0.1,0-0.1,0.1-0.2c-1.9-0.9-4-2.2-6.7-3
		c-0.1-0.7,1.2,0.5,1.1,0c0.8,0.4,1.7,0.8,2.6,1.2c-3.3-1.8-6.7-3.7-10.2-5l0,0c4.3,1,9.1,4.8,12.9,6.2c-2.8-1.7-4.1-2-5.8-3.7
		c0.2,0.9-2.6-1.3-3.7-1.3c-0.1-0.7,1.3,0.5,1.1-0.1c-3.7-1.1-10-3.6-13.7-4.8c0.1,0.2,0,0.3-0.3,0.3c0.1-0.6-1.8-1-0.9-0.7
		c-0.4,0.4-2.1-0.1-3.9-0.5l0,0c-3.2-0.7-6.4-1.4-9.7-1.8c3.3,0.1,6.5,1,9.8,1.3c-0.9-0.4-1.8-0.5-2.6-1.3
		c-19.8-3.3-40.5-0.2-58.5,8.4c-0.9,0.5,1.5-0.6,2.1-0.8c3.5-1.4,7-2.8,10.1-3.3c-0.8-0.2-1.8,0.7-1.4-0.2c2,0,5.3-1.5,7.9-2
		c0.9-0.2,2.2-0.4,3.6-0.7l-0.4,0.1c-0.5,0.1,2.8-0.9,4.1-0.7c4.5-0.7,9.6-1.2,12.6-1.2c1.7-0.1,9.3,0.2,5.9,0.2
		c-2.5,0-4.9,0-7.4,0.2c-0.1-0.1-0.2-0.1-0.2,0c-5.7,0.3-11.4,1.2-16.9,2.5c-1.9,0.3-3.7,0.8-5.7,1.4c0.6-0.1,1.3-0.2,2-0.4
		c-4,1.1-7.9,2.5-11.5,4.1c-0.9,0.3-1.9,0.7-2.8,1.1c-1.9,0.7-3.7,1.5-5.5,2.4c-0.9,0.4-1.8,0.8-2.7,1.3c-0.7,0.3-1.4,0.7-2.1,1
		c-0.7,0.4-1.4,0.5-2.1,1c-0.7,0.4-1.2,0.6-1.8,1c-0.3,0.1-1.5,1.3-0.8,1c0.9-0.6,2.1-1.2,3-1.7c0.9-0.6,1.9-1.2,3-1.6
		c1-0.5,2-1,3.1-1.5c1-0.5,2.1-0.9,3.1-1.4c-0.3,0.2-0.6,0.4-0.9,0.6c0.3,0,0.9,0,1,0.1l-0.8,0.4c0.1-0.1,0.1-0.2-0.1-0.2
		c-0.2,0.2-0.3,0.3-0.4,0.5l-1.4,0.7c-0.8,0.4-1.7,0.8-2.5,1.2c-0.9,0.5-1.7,0.9-2.5,1.3c-0.9,0.6-1.7,0.9-2.4,1.4
		c-0.8,0.4-1.6,0.9-2.4,1.4c0.7-0.3,1.4-0.6,1.9-1.1c0.7-0.3,1.2-0.6,1.9-1c0.7-0.3,1.4-0.6,2-1c-0.5,0.4-1,0.6-1.6,0.9
		c-0.6,0.2-0.8,0.5-1.5,1c-0.6,0.4-1.2,0.8-1.5,1c-0.4,0.3-1,0.7-1.5,1c-0.6,0.3-1,0.9-1.4,1c-0.1,0.1-0.1,0.1-0.2,0.2
		c0,0,0.1,0,0.1-0.1c0.4-0.3,1-0.6,1.4-1c0.5-0.4,1.2-0.7,1.4-0.9c0.5-0.3,1.1-0.5,1.5-0.9c0.8-0.3,1.4-0.8,2-1.2
		c0.6-0.6,1.3-0.8,2-1.1c0.7-0.4,1.4-0.7,2.1-1.1c-0.2,0.2-0.3,0.4-0.4,0.6c0.7-0.3,1.4-0.7,2.1-1l-0.1,0.1c-1,0.5-2,1-3,1.6
		c-0.9,0.6-1.9,1.2-2.9,1.7c-1,0.7-1.7,1.1-2.8,1.7c-0.3,0.2-0.6,0.5-1,0.6c-0.5,0.1-0.7,0.4-1.1,0.7c-0.3,0.3-1,0.4-1.1,0.7
		c-0.1,0-0.2,0-0.3,0.2c0.1,0,0.1,0,0.2,0c0.5-0.1,0.7-0.5,1-0.7c0.2-0.1,0.4-0.4,0.8-0.6c-0.1,0.1-0.1,0.3,0.1,0.4
		c-0.2,0.2-1,0.8-1.4,0.9c-0.6,0.5-0.8,0.6-1.4,1c-0.6,0.3-0.8,0.7-1.3,0.9c-0.6,0.4-0.8,0.7-1.2,1c-0.5,0.5-0.7,0.5-1.2,0.8
		c-0.3,0-0.6,0.7-0.7,1c-0.4,0.4,0.6,0.6-0.2,1.2c-0.6,0.7-0.8,1.1-1.4,1.2c-0.3,0.3-0.7,0.7-0.8,0.9c-0.4,0.3-0.8,0.6-0.8,1
		c-0.3,0.3-1,0.9-1,1.3c0.3,0.2,0.5,0.2,0.4,0.3c0,0.4-0.8,1-1.5,1.6c-0.3,0.5-1,1.3-1,1.6c0.6,0,0.7-0.3,1.1,0
		c0.1,0.7-0.4,0.9-0.7,1.2c-0.5,0.4-0.4,0.7-0.3,1c0.2,0.1,0.4-0.1,0.9-0.7c0.6-0.5,0.1-0.7,0.9-1c0.4,0.1,0.6-0.6,0.9-1
		c0-0.3,0.8-1.2,0.9-1c0-0.5,0.8-0.7,1.1-0.8c0.3,0,0.5-0.4,1.2-0.5c0.4-0.9,1-1.1,1.1-1.5c0.4-0.3,1-0.9,1.4-1.2
		c0.4-0.3,0.8-0.6,1.2-1c0.4-0.4,0.8-0.7,1.3-1c0.9-0.6,1.6-1.3,2.5-1.9c0.9-0.6,1.7-1.2,2.6-1.8c1.8-1.1,3.6-2.2,5.4-3.2
		c1.2-0.6,2.3-1.2,3.5-1.8c1.1-0.6,2.4-1.1,3.6-1.7c0.7-0.3,1.3-0.4,1.9-0.4c0.3-0.1,0.6-0.2,0.8-0.3C40.3,67.7,40.6,67.5,40.9,67.4
		z M111.9,65c-0.5-0.2-1-0.5-1.5-0.6c0.1,0.1-0.3-0.2-0.3-0.2c-0.1,0,0.7,0.2,0.7,0.2C111.2,64.7,111.6,65,111.9,65
		C112,65,112,65.1,111.9,65z M113.7,62.6c0.6,0.3,1.2,0.6,1.8,0.9c0.5,0.3,1.1,0.5,1.7,0.9c-0.7-0.3-1.6-0.7-2.3-1.1
		c-0.7-0.3-1.4-0.6-1.8-0.5l-0.5-0.3c0.1-0.2,1.2,0,1.3,0.2L113.7,62.6z M117.8,66.7c-0.8-0.3-1.5-0.6-1.4-1.1
		c0,0.8-1.6-0.7-1.5-0.1c0.3-0.1,0.6,0.2,0.7,0.3c-0.7-0.2-1.1-0.3-1.6-0.7c-0.1-0.1-0.4-0.3-0.7-0.4c0,0-0.6-0.4-0.6-0.4
		s0.6,0.1,0.7,0.1c0,0,0,0,0,0c0.5,0.1,0.9,0.3,1.5,0.5c0.5,0.3,1,0.4,1.5,0.8c0.5,0,1,0.2,1.5,0.4c0.5,0.3,0.9,0.5,1.3,0.7
		C119.3,67.1,118.5,66.9,117.8,66.7z M119.9,65.8c-0.1,0.2-0.1,0.4-0.5,0.2c-0.6-0.6-1.3-0.8-1.9-1.2c-0.6-0.3-1.4-0.6-2.1-0.8
		c-0.4-0.2-0.8-0.4-1.2-0.6c-0.4-0.2-0.8-0.4-1.2-0.6c0.8,0.2,1.7,0.6,2.6,1c0.9,0.5,1.7,0.8,2.4,1
		C118.6,65.3,119.2,65.5,119.9,65.8z M119.9,64.8c0.2,0.4,0,0.4-0.5,0.4c-0.6-0.4-1.3-0.7-2-1c-0.7-0.4-1.4-0.7-2.1-1
		c-0.7-0.3-1.5-0.7-2.2-1c0.4,0.1,0.8,0.2,1.2,0.2l0,0c0.9,0.4,1.8,0.8,2.7,1.2C118.1,64,119,64.5,119.9,64.8z M117.9,62.9
		c-1.1-0.3-1.7-0.3-3.2-0.9l0.1-0.1c0.2,0,0.3,0,0.5,0c-0.4-0.2-0.8-0.5-1.2-0.7C115.4,61.8,116.6,62.3,117.9,62.9z M114.6,61.8
		l-0.2,0.1c-0.3-0.1-0.6-0.3-1-0.5C113.9,61.4,114.3,61.7,114.6,61.8z M112.5,61.6l0.8,0.3C113,61.8,112.7,61.7,112.5,61.6z
		 M110.5,59.7c0.7,0.3,1.3,0.5,2,0.8c-0.6-0.2-1.3-0.4-1.9-0.6c-0.2-0.1-0.4-0.2-0.6-0.4C110.2,59.6,110.4,59.7,110.5,59.7z
		 M112.3,61.9l0.5,0.3c-0.5-0.1-1-0.1-1.5-0.3c-0.6-0.2-1.3-0.6-2.1-0.9C110.3,61.1,111.3,61.5,112.3,61.9z M109.2,65.5
		c0.4,0,0.7,0.4,1.1,0.5c-0.9-0.3-1.3-0.5-1.8-0.8c-0.7-0.1-1.2-0.6-1.7-0.6c0.4-0.2,1.3,0.4,1.4,0.4
		C108.6,65.2,108.9,65.5,109.2,65.5z M105.7,57.8c0.2,0.1,0.4,0.2,0.7,0.3c-0.1,0-0.2,0-0.4-0.1C105.9,58,105.8,57.9,105.7,57.8
		L105.7,57.8z M107.4,58.5c-0.5-0.1-0.9-0.2-1.2-0.4C106.6,58.3,107,58.4,107.4,58.5z M99.3,56.2c0.6,0.3,2,0.2,1.7,0.6l-0.6-0.1
		c-0.3-0.1-0.7-0.2-1-0.2l-0.2,0l0.9,0.2c-0.3-0.1-0.6-0.3-0.9-0.4L99.3,56.2z M100.8,60.2L100.8,60.2L100.8,60.2z M99.2,62.1
		c0.1-0.1,0.4,0.2,0.3,0c-0.1,0,0.3-0.1,0.3,0.1c0.5,0.2,1.1,0.1,1.6,0.5c0.4,0.1,1.1,0.2,1.6,0.5c0.4,0.3,0.8,0.2,1.4,0.4
		c0.5,0.4,0.9,0.3,1.4,0.4c0.7,0.4,0.9,0.4,1.5,0.7c-0.6-0.3-1.5-0.2-2.1-0.6c-0.7-0.2-1.3-0.4-2.2-0.6c-0.9-0.2-1.2-0.5-1.7-0.6
		c-0.6-0.3-1.2-0.4-1.8-0.5c0.1,0-0.4-0.3-0.5-0.2c0,0.1,0.2,0.1,0.1,0.1c0,0.1-0.6-0.1-0.6-0.1c0.1,0,0-0.1,0-0.2
		C98.5,61.9,99.2,62.2,99.2,62.1z M95.7,61.2c0,0.1,0.3,0.1,0.3,0.1c0,0.1,0.9,0.2,0.7,0.2c0.7,0.3,0.6,0.3,0.8,0.5
		c-0.4,0.1-0.8-0.2-1.3-0.3c0,0.1-0.1,0-0.2,0c-0.2,0.1,0-0.1-0.2,0C95.7,61.4,95.6,61.4,95.7,61.2z M94.1,60.9
		c0,0.1,0.6,0.1,0.6,0.1c0,0.1,0.1,0.1,0.1,0.2c-0.2,0-0.4,0.1-0.5,0C94.2,60.9,93.9,61.1,94.1,60.9z M14.6,79
		c-0.4,0.5-1,0.8-1.5,1.2c-0.1,0-0.2,0.1-0.4,0.2c0.2-0.2,0.6-0.5,0.7-0.6c0.4-0.2,0.8-0.7,1.2-1c0.4-0.2,0.8-0.6,1.1-0.8
		c0,0,0.1,0,0.1-0.1C15.7,78.5,15.2,78.9,14.6,79z M23.8,70.5c0.7-0.5,1.3-0.7,2.1-1.2c-0.5,0.3-1,0.7-1.7,1.1
		c-0.3,0.3-1,0.6-1.5,0.9C23,71.1,23.4,70.9,23.8,70.5z M29.6,68.7c-0.5,0.3-0.9,0.5-1.4,0.8c0.1-0.1,0.1-0.2,0.3-0.3
		c-0.3,0.4-0.7,0.5-0.8,0.7l-0.1,0.1c-0.2,0.1-0.5,0.3-0.9,0.5c-0.4,0.2-0.8,0.5-1.3,0.8c-0.5,0.3-1,0.6-1.5,0.9
		c-0.5,0.2-1,0.4-1.4,0.8c-0.6,0.4-1.4,0.7-1.2,0.6c-0.4,0.3-1,0.9-1.3,1.2c-0.5,0.2-1,0.7-1.4,1.1c-0.7,0.4-1.1,0.6-1.3,1.1
		c-0.4,0.3-0.7,0.5-1,0.7c0.2-0.2,0.2-0.4,0.4-0.5c0.8-0.2,1.1-0.8,1.4-1.3c-0.4,0.4-1.2,0.9-1.4,0.7c0.4-0.6,1-0.9,1.4-1.2
		c0.5-0.4,1.1-0.7,1.5-1c0.3-0.4,1-0.6,1.5-1.1c0.6-0.4,1.1-0.6,1.5-1c0.5-0.2,0.9-0.7,1.5-1c0.6-0.3,1.1-0.7,1.5-1
		c0.5-0.2,1.1-0.6,1.5-0.9c0.5-0.3,1-0.6,1.5-0.9l-0.1,0.2c0.8,0.1,0.8-0.8,1.5-0.8C29.8,68.2,29.6,68.5,29.6,68.7z M26.3,69.1
		c0.5-0.3,1.1-0.6,1.6-0.8c-0.5,0.3-0.7,0.6-0.9,0.8C26.7,69.2,26.6,69.2,26.3,69.1z M31.6,66.1c-0.7,0.3-1.4,0.7-2,1.1
		c-0.7,0.4-1.2,0.7-2,1.1c-0.6,0.4-1.2,0.8-1.8,1c-0.4,0.2-0.8,0.3-1.2,0.6c0.7-0.4,1.5-0.9,2.4-1.4c0.8-0.4,1.6-0.9,2.4-1.3
		c0.8-0.4,1.6-0.9,2.5-1.3C31.8,65.9,31.7,66,31.6,66.1z"/>

    <path fill="#FFEA33" d="M33.6,80.5c0.5,0.1,0.8-0.4,1.2-0.6c0.3-0.2,0.6-0.4,0.9-0.4c0.4-0.2,0.2-0.2,0-0.4
		c0.2,0.1,1.4-0.6,1.2-0.7c-0.2-0.1-0.2-0.1,0.3-0.3c0.5-0.3,1.5-1,2.2-1.3c0.7-0.4,1.7-1.1,2.2-1.2c0.7-0.2,1.4-0.9,2.3-1.1
		c-0.1,0.1,0.3-0.1,0.4-0.1c0.2-0.2,0.4-0.2,0.4-0.3c0-0.2,0.4-0.2,0.4-0.2c0.9-0.6,1.6-0.6,2.2-0.8c0.8-0.5,0.9,0,2.2-0.8
		c0.5-0.4,1.3-0.7,2-0.7c0.1,0,0.2,0,0.2,0c0.8-0.1,1.7-0.2,2.5-0.4c0,0,0,0,0,0c0.1,0,0.3-0.1,0.4-0.1c0,0,0,0,0,0
		c0.2-0.1,0.4-0.2,0.6-0.3c0.6-0.2,1.1-0.3,1.5-0.4c0.5-0.2,0.9-0.3,1.3-0.3c0.4-0.3,1.3-0.2,1.8-0.4c0.5-0.1,1.3-0.4,2.1-0.4
		c0.8,0.2,1.1-0.5,1.9-0.4c0.8,0,1.3,0,2.1-0.3c0.6,0,1.5-0.3,2-0.3c0.8-0.1,1.2,0,2-0.2c0.8-0.1,1.4-0.2,2-0.2
		c0.4-0.1,1.2,0.2,2-0.1c0.6,0.1,1.2-0.2,2.1-0.1c0.3,0,0.6,0,0.8,0c0,0,0,0,0,0c0,0,0,0,0,0c0,0,0,0,0,0c0,0,0,0,0.1,0c0,0,0,0,0,0
		c0.4,0,0.8-0.1,1,0c0,0.1,0.1,0.1,0.1,0.1c0.4-0.2,0.9-0.1,1.1,0c0.4-0.1,1,0,1.4,0c0,0,0,0,0,0c0,0,0.1,0,0.1,0
		c-0.1,0,0.1-0.2,0.2-0.2c-0.1,0-0.2-0.2,0-0.3c0.1,0.1,0.3,0.2,0.5,0.1c0,0,0.1,0,0.1,0c0.2,0,0.3-0.1,0.1-0.1
		c0-0.1-0.1-0.1-0.1-0.1c0,0,0.1,0.1,0.4,0.1c0.3,0.1-0.1-0.1,0.3,0c0.5-0.5,1.1-0.2,1.6,0.2c0.8,0.2,1.1,0.2,1.6,0.1
		c0.5,0.3,1,0.2,1.4,0.2c0.4-0.1,1,0.2,1.4,0.1c0.1,0.1,0.2,0.2,0.4,0.3c-0.3,0-0.6,0-0.9,0c-0.1-0.3-1.2-0.3-1.2-0.1
		c-0.2-0.1-0.8,0.2-1-0.1c-1.1,0-0.7-0.1-1.7-0.2c-0.9,0.1-1.3-0.1-1.8-0.2c-0.1,0.2-0.4,0.1-0.6,0c-0.2,0-0.3-0.1-0.3,0
		c0,0.1,0,0.1-0.1,0.1c0,0,0,0.1-0.1,0.2c0.4-0.1,1,0,1.1,0c0,0,0.7,0,1.2,0.1c0.3,0.1,0.8,0,0.9,0.2c-0.5-0.2-1.1,0.3-0.1,0.1
		c-0.1,0-0.1,0.1-0.1,0.1c0.2-0.1,0.4-0.2,0.6-0.1c0.5-0.2,1.1,0.2,1.4,0.4c1,0.4,1,0.3,1.1,0.6c0.2,0,1.7,0.5,1.3,0
		c0,0.3-0.5,0.1-0.2,0c0,0,0.1,0,0.1,0c0,0,0,0,0,0c0,0,0,0,0,0c0,0,0,0,0,0c0,0,0,0,0,0c0,0,0,0,0,0c0,0,0.1,0,0.1,0
		c0.7,0.3,1.6,0.5,2,0.6c0,0.1,0.9,0.1,0.1-0.3c0.4,0.2,1.1,0,1.2,0.3c0.9,0,0.4,0,1.1,0.3c0.9,0.1,1.3,0.4,2.1,0.5
		c0.2,0.4,0.6,0.1,1.2,0.3c0.7-0.1,1.3,0.6,1.4,0.4c-0.7-0.3-0.8-0.7-1.5-0.6c-0.4,0.2-1.5-0.5-1.7-0.5c-0.7-0.4-0.4-0.5-1.6-0.4
		c-0.6-0.3-0.7-0.4-1.1-0.7c0.4,0,1.1,0.3,1.2,0.3c0.3,0.1,1,0.1,1.3,0.3c0.1,0,0.1-0.1,0.2-0.1C94.4,70,94.8,70,95,70
		c0.1,0.1,0.1,0.2,0.2,0.3c0.2,0.1,0.6,0,1.2,0.3c0,0,0.1,0,0.1,0c-0.2-0.1-0.3-0.3-0.4-0.4c-0.2,0-0.5-0.1-0.7-0.3c0,0-0.1,0-0.1,0
		c0,0,0.1,0,0.1,0c-0.2-0.1-0.4-0.3-0.6-0.5c0.1,0,0.2,0,0.3,0c-0.4-0.2,0.2-0.1-0.3-0.2c0.8-0.1,1.1,0.3,1.5,0.4
		c0.2,0.3,0.4,0.3,1,0.4c-0.1,0-0.2,0-0.3,0c0.5,0.1,0.9,0.2,1.2,0.3c0.1,0.1,1.1,0.3,1.8,0.5c0.2,0,0.8,0,1.2,0.2
		c0.2,0,0.9,0.4,1.2,0.6c0.2,0,1,0.4,1.2,0.3c0.4-0.1,0.8,0.7,1.1,0.5c0.4,0.3,0.7,0,1,0.5c0.5,0,1.1,0.3,1.1,0.3
		c0.3,0.2,0.7,0.4,0.9,0.5c-0.5-0.3-1.2-0.3-1.4-0.6c-0.5,0-0.9-0.6-1.6-0.6c-0.7-0.2-1-0.3-1.5-0.3c-0.5-0.1-1-0.2-1.3-0.7
		c-0.5-0.2-1-0.4-1.6-0.5c-0.5-0.1-0.8-0.1-1.1,0c0.3,0,0.8,0.1,1.3,0.3c0.4,0.2,1,0.2,1.5,0.5c1,0.4,1.8,0.6,0.7,0.6
		c0.4,0.2,0.8,0.1,1.3,0.6c0.6-0.1,0.8,0,1.3,0.7c-0.4-0.1-0.8-0.4-1.6-0.6c0.3,1.1,0.9,1,1.5,1c0.6,0.1,1.4,0,1.5,0.8
		c0.5,0,0-0.5,0.4-0.5c0.6,0.4,0.9,0.5,1.3,0.6c0.7,0.5,0.5,0.7,1.3,0.4c0,0,0.1,0.1,0.2,0.2c-0.3-0.2,0.6-0.1,0.6-0.3
		c-0.3-0.2-0.7-0.3-1.4-0.8c-0.5-0.1-0.9-0.6-0.9-0.9c0.5,0.3,1.2,0.2,1.5,0.5c-0.3,0.2-0.1-0.3-0.3,0.2c-0.4,0.2-0.1-0.3-0.8-0.3
		c0.5,0.5,0.9,0.4,1.6,0.7c0.3,0.1,0.8,0.1,1.1,0.1c-0.3-0.1-0.7-0.5-1.5-0.7c-0.4-0.6-1.1-0.9-1.6-0.7c0,0,0,0,0-0.2
		c-0.4-0.1-1.2-0.7-2-0.7c-0.6-0.2-1.1-0.6-1.5-0.6c-0.7-0.4-0.9-0.3-1.3-0.5c-0.6-0.3-0.9-0.7-1.3-0.7c-0.4-0.2-0.8-0.4-1.4-0.4
		c-0.5-0.1-0.9-0.5-1.4-0.6c-0.5-0.2-0.7-0.4-1-0.5c0.5,0.2,1.1,0.3,1.7,0.6c1.2,0.1,1.7,0.2,1.7,0.4c0.3,0.2,1.1-0.1,1.8,0.5
		c-0.5-0.3-0.8-0.8-1.4-0.7c-0.5-0.1-0.7-0.3-1.7-0.5c0,0,0,0-0.1,0.1c-0.5-0.1-1-0.7-1.7-0.7c-0.6-0.2-0.9-0.3-1.8-0.7
		c0.6-0.2,1.1,0.1,1.5,0.3c0.1,0,0-0.1,0,0.2c0.1-0.3,0.3,0,0.9-0.1c0.4,0,0.9,0.3,1.3,0.2c0.9,0.3,1.4,0.3,1.4,0.9
		c0.6-0.1,1.2,0.3,1.7,0.2c0.6-0.2,1.5,0.1,1.3-0.2c-0.5-0.2-1.3-0.2-1.7-0.3c-0.8-0.4-1-0.4-1.6-0.6c0.6,0,1.3,0.2,1.8,0.2
		c0.5,0.1,1.2,0.3,1.6,0.6c0.4,0.3,0.9,0.5,1.6,0.7c0.6,0.2,1.1,0.2,1.6,0.6c0.3,0.5,1.1,0.7,1.6,0.6c0.8,0.2,0.9,0.4,1.7,0.6
		c0.1-0.3-0.9-0.3-1.5-1.2c0.8,0,1.8,0.6,1.5-0.2c-0.4-0.3-0.7,0-1.2-0.3c0-0.4-0.7-0.1-1.2-0.5c0.3,0,0.6,0.1,0.9,0.1
		c-0.3-0.1-0.9-0.4-1.2-0.6c-0.2-0.3-1-0.3-1.4-0.5c-0.1-0.1-0.2-0.1-0.3-0.2c0.1,0,0.3,0,0.5,0c0.3-0.2,0.6,0.1,1.3,0.3
		c0.4,0.1,1,0.5,1.2,0.8c0.6,0,0.9-0.1,0.6-0.3c1.1,0.6,1-0.3,1.8,0.5c-0.1,0-0.5-0.9,0-0.7c0.3,0.1,0.2,0.2,0.3,0
		c-0.4-0.2-0.7-0.5-1-0.7c-0.4-0.2-0.8-0.5-1.3-0.6c-0.5-0.3-0.9-0.5-1.2-0.6c-0.3-0.2-0.4-0.4-0.5-0.8c-0.2,0-1.1-0.2-1.6-0.3
		c-0.6-0.1-0.9-0.2-1.1,0.1c0.3,0.4,0.8,0.2,1.4,0.4c0.1,0.1,0.2,0.1,0.2,0.1c-0.6,0-1.2,0-1.8-0.2c-0.8-0.2-1.6-0.4-2.5-0.7
		c0.4,0.1,0.8,0.3,1.2,0.5c0.9,0.6,1.8,0.7,2.9,1.2c0.5,0.2,0.9,0.4,1.5,0.6c0.3,0.2,1.1,0.3,1.7,0.7c0.2,0.1,0-0.4-0.1-0.4
		c1.4,0.5-0.2,0.6-0.8,0.8c-0.2-0.3-0.3-0.4-0.6-0.6c-0.3-0.2-0.8-0.5-1.4-0.7c-0.4-0.2-1.1-0.4-1.7-0.6c-0.6-0.2-1.3-0.3-1.7-0.3
		c0.1-0.3-0.4-0.6-0.9-0.6c-0.6,0-1.2-0.3-1.5-0.5c0.2-0.1,0.5-0.1,0.7-0.1c0,0-0.1,0-0.1,0c-1.3-0.3-2.9-0.5-3.7-0.7
		c0.2-0.5,1.2,0.4,1-0.2c0.5,0,0.8,0.3,1.3,0.4c0.5,0.3,0.7,0.4,1.4,0.3c-0.9-0.4-1.3-0.3-1.7-0.6c-0.1,0-0.2-0.1-0.3-0.1
		c0.2,0,0.4,0.1,0.6,0.1c0.9,0.3,1.7,0.6,2.2,0.7c0.5,0.4,1.4,0.3,2,0.5c-0.9-0.5-1.7-0.8-2.5-0.9c-0.6-0.1-1.1-0.2-1.9-0.7
		c-0.8-0.4-1.3-0.6-1.8-1c0,0.5-0.8,0.1-1.3,0c-0.4,0-0.7-0.5-1.4-0.4c-0.4,0-0.8-0.2-1-0.2c-0.2-0.7,1.1,0.2,1-0.3
		c-0.3,0-1,0-1.5-0.1c-0.6-0.1-1.2-0.2-1.7-0.3c-1.2-0.1-2.4-0.3-3.7-0.6c-1.3-0.3-2.3-0.3-3.7-0.6c-1.2,0-2.5-0.3-3.2-0.5
		c-0.2,0.2-0.1,0.4-0.2,0.4c0-0.4-0.3-0.6-0.7-0.7c-0.2-0.1-0.3-0.1-0.4-0.1c-0.1,0-0.1,0.1,0.1,0.2c-0.3,0.5-0.4,0.3-1.3,0.3
		c-0.8,0.2-1.6-0.2-2.4-0.1c0,0,0,0,0,0c-1.1,0.3-2,0.1-3.2-0.1c-1,0-2-0.2-3.2,0c-1,0.1-2.2,0-3.2,0.1c1-0.3,2.3-0.4,3.2-0.3
		c0.9-0.3,2-0.1,3.2-0.1c1-0.1,1.8,0,2.7-0.1c0,0,0,0,0,0c-0.4,0-0.8-0.1-0.9-0.3c-0.2,0.1-1-0.3-1.4-0.6c-1.4,0-2.8,0.2-4.2,0.2
		c-1.4-0.1-2.7,0.3-4.1,0.4c-1.3,0.3-2.6,0.4-4.1,0.6c-0.1,0-0.2,0-0.3,0.1c-0.2,0-0.4,0.1-0.6,0.1c-0.3,0-0.6,0.1-0.8,0.1
		c-0.3,0.1-0.6,0.1-0.9,0.2c-0.2,0-0.4,0.1-0.5,0.1c-0.3,0.1-0.6,0.1-0.8,0.2c-0.9,0.2-2,0.7-3.1,0.9c-0.3,0.1-0.6,0.1-1,0.1
		c-1.2,0-2.7,0.8-4,1.2c-1.4,0.7-2.7,1-3.9,1.4c-1.2,0.4-2.6,1.1-3.9,1.5c-0.6,0.2-1.2,0.5-1.9,0.9c-0.3,0.2-0.6,0.3-0.9,0.5
		c-0.3,0.1-0.5,0.2-0.8,0.3c-0.1,0-0.1,0-0.2,0.1c-1.3,0.7-2.4,1.3-3.7,1.9c-1.3,0.8-2.5,1.3-3.6,2c-1.2,0.7-2.4,1.4-3.5,2.2
		c-1.2,0.7-2.4,1.8-3.4,2.4c-1.2,0.8-2,1.5-3.3,2.5c-0.6,0.5-0.1,0.3,0.4-0.3c0.6-0.4,1.2-0.9,1.3-1c1-0.4,1.9-1.2,3-2
		c1.1-0.6,1.8-1.3,2.9-1.8c1.1-0.4,2.1-0.9,2.9-1.4c-0.9-0.2-1.4,1-1.4,0.1c0.6-0.2,1.4-0.4,2.1-0.9c0.8-0.5,1.6-0.8,2.5-1.4
		c0.6-0.6,1.7-1,2.5-1.3c0.3-0.1,0.8-0.3,1.5-0.6c0.5,0.1,0.9-0.3,1.4-0.6c0.1,0,0.6-0.3,1.2-0.7c0.6-0.3,1.7-0.8,2.5-0.9
		c0.9-0.3,2.1-0.8,3.2-1.2c1-0.2,2.1-0.4,3.2-1c1.3-0.2,2.2-0.7,2.9-0.9c1.2-0.2,1.6-0.4,2.4-0.6c0.7-0.3,1.6-0.5,2.9-0.6
		c1.3-0.3,2.4-0.5,3.1-0.5c0.7-0.2,0.8-0.1-0.3,0.1c-0.8,0.3-1.5,0.4-2.3,0.5c-0.7,0.3-1.6,0.2-2.3,0.5c-0.8,0.2-1.3,0.2-2.3,0.6
		c-0.3,0-0.6-0.1-0.1,0c-0.9,0-2,0.9-3.2,0.9c-1,0.2-2.2,0.6-3.1,1.1c-0.8,0.3-2.4,0.7-3.1,1.2c-1.2,0.4-2.1,1-3.1,1.3
		c-1,0.4-2.2,1.1-3,1.4c-0.7,0.4-1.7,0.8-2.5,1.1c-0.4,0.1-0.8,0.4-1.2,0.6c0.1,0,0.3-0.1,0.5-0.1C35,71.4,33.8,72,33,72.4
		c-0.7,0.6-1.7,1-2.5,1.6c-0.9,0.6-1.6,1.2-2.4,1.6c-0.7,0.7-1.5,1.3-2.3,1.7c-0.4,0.2-0.6,0.5-1.2,0.8c-0.5,0.4-0.9,0.6-1.2,0.8
		c-0.8,0.4-1.6,1.2-2.4,1.7c-0.8,0.5-1.6,1.1-2.3,1.7c-0.7,0.6-1.5,1.2-2.2,1.8c-0.4,0.4-0.7,0.7-1.3,1c-0.6,0.4-0.8,0.6-1.3,1
		c-0.6,0.6-0.8,0.9-1.2,1C12,87.4,12,88,11.5,88.2c-0.3,0.2-1.4,1.5-0.5,1.1c0.3-0.4,0.7-0.8,1.2-1.1c0.2-0.3,0.9-0.6,1.2-1.1
		c0.5-0.4,0.8-0.7,1.2-1.1c0.4-0.4,0.8-0.7,1.2-1.1c0.8-0.7,1.7-1.4,2.5-2.1c0.7-0.4,1.4-0.7,2-1.2c0.3-0.1,0.6,0,0.8,0
		c-0.1-0.1-0.2,0.4-0.6,0.5c0.1-0.2,0.1-0.1-0.1-0.2c0,0.3-0.1,0.3-0.3,0.6c0.1-0.1-1,1.1-1.2,1c-0.6,0.8-1.8,1.5-2.8,2.3
		c-0.5,0.4-0.9,0.8-1.3,1.2c-0.5,0.4-0.9,0.9-1.3,1.2c-0.4,0.4-0.8,0.7-1.3,1.2c-0.1,0.1-0.3,0.3-0.4,0.4c0.1-0.1,0.2-0.2,0.3-0.3
		c0.4-0.3,0.8-0.7,1.2-1c0.8-0.8,1.5-1.4,2.4-2.1C14.9,87,14,88,13.3,88.8c-0.4,0.3-0.7,0.8-1.1,1.2c-0.5,0.5-0.8,0.9-1.2,1.4
		c-0.3,0.2-0.9,0.7-1.1,1.3c-0.4,0.4-0.7,0.8-1.1,1.4c0.3-0.5,0.7-0.8,1-1.2c0.4-0.5,0.7-0.8,1.2-1.3c0.4-0.4,0.7-0.8,1.1-1.2
		c0.3-0.3,0.7-0.8,1.2-1.2c0.3-0.4,0.8-0.8,1.2-1.2c0.4-0.5,0.9-0.8,1.2-1.2c0.3-0.3,0.7-0.8,1.2-1.1c0.4-0.5,0.8-0.9,1.3-1.1
		c0,0-0.4,0.6-0.4,0.7c-0.2,0.2-0.5,0.5-0.7,0.8c-0.4,0.4-0.8,0.7-1.3,1.1c-0.4,0.3-0.8,0.6-1.1,1.1c-0.4,0.4-0.8,0.8-1.1,1.1
		c-0.2,0.5-0.7,0.7-1.1,1.1c-0.3,0.1-0.8,0.5-0.8,0.8c-0.3,0.3-0.6,0.6-0.9,0.9c-0.3,0.3-0.6,0.7-0.8,1c-0.2,0.2-0.4,0.4-0.5,0.5
		c0.2-0.1,0.4-0.3,0.4-0.4c0.2-0.2,0.5-0.6,0.7-0.8c0.3-0.4,0.7-0.6,0.9-0.9c-0.1,0.2-0.2,0.5,0,0.5c-0.3,0.4-0.9,0.8-1.1,1.1
		c-0.2,0.4-0.9,0.9-1.1,1.3c-0.3,0.4-0.6,0.7-1,1.3c-0.3,0.5-0.6,0.8-1,1.1c-0.2,0.4-0.8,0.6-0.9,1.1C6.2,98.2,6,98.7,6,99
		c-0.6,0.9,0.2,0.7,0.1,1.2c0,0.4-1.2,1-1,1.4c-0.3,0.4-0.4,0.9-0.5,1.1c0,0,0.1-0.1,0.1-0.1c-0.2,0.3-0.6,0.8-0.6,1.1
		c-0.1,0.4-0.3,0.7-0.7,1.5c0.4-0.1,0.8,0.2,0.4,0.2c-0.2,0.4-0.5,0.8-1,1.8c-0.3,1-0.5,1.4-0.5,1.7c0.4-0.9,0.6-0.1,1.1-0.2
		c0.1,0.9,0.1,1-0.4,1.3c-0.4,0.3-0.4,1.1,0,1c0-0.3,0.6-0.7,0.7-0.8c0,0,0.5-0.6,0.6-1.1c0.3-0.6,0.3-0.8,0.6-1.1
		c0.3-0.3,0.5-0.7,0.6-1.2c0-0.3,0.6-0.5,0.7-0.8c0.1-0.4,0.8-0.8,1.1-0.9c0.1-0.6,0.2-1.1,0.7-1.7c0.1-0.8,0.5-1,1-1.4
		c0.2-0.4,1-1.1,1.2-1.5c0.7-0.6,0.8-0.9,1.2-1.5c0.8-0.4,0.8-1,1.3-1.5c0.3-0.5,1-1,1.2-1.4c0.5-0.7,0.9-1,1.3-1.4
		c0.7-0.4,1.1-1,1.3-1.4c0.4-0.3,0.8-0.6,1.4-1.3c0.6-0.4,0.7-1.2,1.4-1.3c0.4-0.1,0.8-0.4,1-0.7c0.2-0.4,0.5-0.7,0.9-0.9
		c0.1-0.2,0.4-0.4,0.8-0.7c0.5-0.3,0.7-0.5,1.1-0.9c0.3-0.5,0.6-0.6,0.8-0.8c0.3-0.2,0.7-0.5,1.1-0.8c1-0.4,1.3-0.6,1.9-0.8
		c0.2-0.4,0.6-0.5,1.1-0.8c0.4-0.3,0.8-0.5,1.1-0.8c1.4-0.9,2.2-1,2.8-1.6c0.4-0.4,0.9-0.6,1.3-0.8c0.2-0.2,0.4-0.3,0.6-0.5
		C33.8,80.6,33.7,80.6,33.6,80.5z M88.3,69.3C88.3,69.3,88.3,69.3,88.3,69.3C88.3,69.2,88.3,69.2,88.3,69.3
		C88.3,69.2,88.3,69.2,88.3,69.3z M108.2,73.6C108.1,73.6,108.1,73.6,108.2,73.6C108.1,73.6,108.1,73.6,108.2,73.6z M108.6,68
		c0.7-0.4,1.1,0.1,1.7,0.2C110.5,69,109.4,68.5,108.6,68z M89.3,68.7C89.4,68.6,89.4,68.6,89.3,68.7c0.2,0,0.2-0.1,0.3-0.1
		c0.2,0,0.4,0.1,0.6,0.2C90,68.7,89.8,68.6,89.3,68.7z M93.1,67.6c0.4,0.2,1.1,0.1,1.3,0.3c0,0.1-0.1,0.1-0.1,0.1
		c-0.5,0.1-1,0.3-1.4-0.3C93,67.8,93.1,67.7,93.1,67.6z M94.3,69.7c0.2-0.1,0.4,0,0.6,0.1C94.6,69.8,94.5,69.7,94.3,69.7z
		 M94.4,65.5c-0.1-0.5,1.2-0.2,1.3-0.1c0.1,0,0.1,0,0.1,0c0.6,0.2,1,0.4,1.6,0.5c0.3,0,1.2,0.4,1.8,0.5c-0.6,0-0.8-0.2-1.2-0.3
		c-0.6-0.1-1.1-0.4-1.2-0.3c-0.6-0.4-1.7-0.3-1.8-0.2C94.5,65.7,94.4,65.4,94.4,65.5z M94.2,64.5c0.1,0.1,0.7,0,0.8,0.2
		C94.9,64.9,94.6,64.8,94.2,64.5z M100.2,68.6c-0.7-0.1-1.3-0.4-1.5-0.8c0,0.8-1.6-0.4-1.4,0.2c-0.3-0.1-0.6-0.2-0.9-0.3
		c0-0.2-0.6-0.2-0.7-0.3c0.2-0.2-0.5-0.2-0.7-0.3c0.1,0.1,0.6-0.3,0.7,0c0.3-0.3,1.1,0.2,1.5,0.3c0.1,0.1,1,0.1,1.6,0.5
		c0.4,0.3,1,0.2,1.5,0.2c0.3,0.1,1.2,0.6,1.4,0.5C101.3,68.6,101.2,68.6,100.2,68.6z M101.5,67.5c-0.8-0.4-1.2-0.6-2-0.8
		c-0.5-0.1-1.2-0.4-2.2-0.3c-0.2-0.2-0.6-0.1-1.2-0.4c-0.8-0.3-0.8,0-1.2-0.3c0.5-0.1,0.5,0.2,1.3,0.2c0.5,0.1,0.7,0.4,1.3,0.4
		c0.5,0.2,0.7,0.1,1.3,0.3c0.4,0,0.7-0.1,1.1,0.2c0.5,0.1,1.2,0.1,2,0.6C101.6,67.4,101.8,67.6,101.5,67.5z M104.9,67.4
		c0.5,0.1,0.9,0.3,1.3,0.4c0.4,0.1,0.7,0.4,0.8,0.4c0,0.3-0.1,0.2-0.3,0.2c-0.4-0.1-0.8-0.2-1.7-0.6c0.3,0.1,0.6,0.3,0.8,0.4
		c-0.4-0.1-0.8-0.2-1.1-0.2c0.2-0.2,0.1-0.5-0.5-0.8c0.5,1-0.3,0.3-0.6,0.6c-0.3,0-1.2-0.4-1.1-0.6c0.5,0.3,0.7,0.1,1.4,0.3
		c-0.5-0.3-1.4-0.5-1.9-0.7c0.1-0.1,0.2-0.3,0.1-0.5C103,66.8,103.9,67.2,104.9,67.4z M99,65.6c0.4-0.1,1.1,0.2,1.4,0.3
		c0.6,0,1,0,1.4,0.3c-0.1,0.2,0,0.5-0.4,0.5c-1.1-0.1-1.6,0.1-2-0.6c-0.6,0.2-0.3,0.1-1.1-0.3c-0.4-0.2-0.8,0.1-1.1-0.3
		c-0.2-0.2-0.6-0.1-1.1-0.3c-0.5-0.1-0.9-0.2-1.1-0.3c0.4-0.1,0.8,0.1,1.2,0c0-0.2,0.2-0.2,0-0.1c0.6,0.2,0.8,0.5,1.4,0.3
		C98.1,65.3,98.6,65.4,99,65.6z M96.4,64.4c0,0-0.1,0.3-0.2,0.1c-0.2,0.1-0.6-0.1-1-0.3C95.6,63.9,96.3,64.2,96.4,64.4z M98.2,64.8
		c-0.4-0.1-1.2,0.1-1.7-0.2c0,0.1-0.2-0.2,0.1-0.2c0.3-0.2,0.4,0,0.5-0.1c-0.2-0.1-0.4-0.2-0.6-0.2c0.4,0.1,0.8,0.1,1.2,0.3
		c0.7,0,1.3,0.4,2,0.5C99.5,64.7,98.8,64.9,98.2,64.8z M93.7,62.8c0.6,0.1,1.1,0.2,1.7,0.4c0.5,0.2,1.2,0.1,1.7,0.5
		c0.6,0.1,1.2,0.3,1.8,0.5c0.1,0.1,0.2,0.2,0.4,0.2c0,0,0,0-0.1,0c-0.6-0.2-1.1-0.5-1.8-0.5c-0.6-0.2-1.3-0.4-1.8-0.5
		c-0.7-0.1-1.1-0.4-1.8-0.5c-0.6-0.1-1.2-0.2-1.8-0.3c0,0,0,0,0,0C92.6,62.7,93.2,62.7,93.7,62.8z M92,63.1c0.9,0.3,1.4,0.1,2.1,0.4
		c-0.8,0-1,0.1-1.9-0.2c-0.4-0.1-0.3,0.1-0.6-0.2C91.9,63,91.9,63,92,63.1z M92.6,64.6c0.4,0.1,1.1,0.4,1.5,0.3
		c-0.3,0,0.4-0.1,0.5,0.1c-0.3,0-1,0-1.5,0c-0.5-0.2-0.9-0.2-2.1-0.5C91.4,64.7,92.1,64.3,92.6,64.6z M92.4,67.7
		c0,0-0.1-0.1-0.1-0.1C92.4,67.6,92.4,67.6,92.4,67.7z M90.7,68.8c0.5-0.3,0.5,0.5,1.1,0.3c0.2,0.3,1.2,0.1,1.1,0.3
		c-0.3,0.1-1.4,0-1.9-0.4C90.9,68.9,90.7,68.9,90.7,68.8C90.7,68.9,90.7,68.8,90.7,68.8z M88.7,62.6c-0.3,0.2-0.9,0-1.1-0.2
		C87.6,62.4,88.4,62.6,88.7,62.6z M87.2,62.1c0.2,0,0.5,0.1,0.6,0.2c-0.1,0.1-0.2-0.1-0.4,0C87.3,62.2,87.3,62.3,87.2,62.1
		C87.3,62.2,87.3,62.1,87.2,62.1z M86.7,62.1C86.5,62.5,86.4,62.1,86.7,62.1L86.7,62.1z M86.6,62.1C86.6,61.9,86.8,62,86.6,62.1
		C86.7,62.1,86.7,62.1,86.6,62.1C86.6,62,86.4,62.2,86.6,62.1z M82.9,65.5c0,0,0-0.1,0-0.1C83,65.5,83,65.6,82.9,65.5z M82.9,65.4
		C82.9,65.5,82.9,65.5,82.9,65.4C82.8,65.5,82.8,65.4,82.9,65.4z M80.8,61.8c0.4,0.3,2.1-0.2,1.7,0.2c0-0.1-0.8-0.1-0.6,0
		c0.2,0.1-1.2,0.1-1,0c0,0,0,0,0,0c0.1,0,0.2,0,0.2,0c-0.2-0.1-0.4-0.1-0.5-0.2C80.4,61.4,80.7,61.8,80.8,61.8z M78.9,67.7
		C78.9,67.7,79,67.7,78.9,67.7C78.9,67.7,78.9,67.7,78.9,67.7C78.9,67.7,78.9,67.7,78.9,67.7z M79.3,67.4c0.1,0.1,0.2,0.2,0.3,0.3
		c-0.2,0-0.3,0-0.5,0C79.2,67.6,79.3,67.6,79.3,67.4z M78.6,67.4c0,0.1,0.1,0.2,0.2,0.3c-0.1,0-0.1,0.1-0.1,0.1c-0.1,0-0.1,0-0.1,0
		c0,0,0,0,0,0c-0.2,0.2-0.2-0.2-0.3-0.3C78.1,67.3,78.7,67.1,78.6,67.4z M76.7,67.4c0,0.1,0.9-0.4,0.6,0c0-0.1-0.1,0-0.1,0
		c-0.1-0.1-0.1-0.2-0.2,0.2C76.6,67.4,76.5,67.5,76.7,67.4z M20.8,81.2c0.1-0.1,0.1-0.2,0.2-0.3C20.9,81,20.9,81.1,20.8,81.2z
		 M18.7,84.5c-0.1,0.1-0.2,0.2-0.4,0.2c0,0,0,0,0,0C18.4,84.6,18.4,84.5,18.7,84.5z M12.8,90.7c0.2-0.1,0.5-0.4,0.8-0.7
		c0.3-0.3,0.6-0.5,0.9-0.9c-0.4,0.5-1.1,0.9-1.4,1.4c-0.5,0.5-1,1.2-1.5,1.5C11.9,91.7,12.3,91.2,12.8,90.7z M5,102.3
		c0.1-0.2,0.2-0.4,0.4-0.6c0-0.1,0.1-0.1,0.2-0.2C5.3,101.8,5.1,102.1,5,102.3C5,102.3,5,102.3,5,102.3z M5.9,100.9
		c0-0.1,0.1-0.1,0.1-0.2c0.1-0.1,0.2-0.3,0.4-0.4C6.2,100.5,6.1,100.7,5.9,100.9z M6.9,99.7c0,0,0.1-0.1,0.1-0.1
		c0.1,0,0.1-0.1,0.2-0.1c0,0-0.1,0.1-0.1,0.1C6.9,99.6,6.9,99.6,6.9,99.7z M17.8,87.7c-0.7,0.5-0.6,0.8-1.1,1.1c0,0,0,0,0,0
		c-0.2,0.3-0.4,0.2-0.5,0.5c-0.3-0.1-0.3,0.1-0.1,0.1c-0.2,0.3-0.5,0.4-0.7,0.7c-0.5,0.2-0.7,0.4-1.1,1c-0.6,0.4-0.7,1-1.2,1.2
		c-0.2,0.6-0.8,0.5-1.1,1.1c-0.6,0.4-1.1,0.9-1.1,0.9c-0.3,0.4-0.5,0.8-0.9,1.3c-0.3,0.4-0.8,0.9-1,1.4c-0.5,0.6-0.9,1-1.2,1.5
		c-0.2,0.1-0.4,0.4-0.5,0.6c0.1-0.2,0.1-0.3,0.2-0.5c0.5-0.8,1-1.4,1.1-1.8c-0.4,0.1-1.1,1.4-1.2,1.2c0.3-0.2,0.3-0.9,0.6-0.9
		c0.2-0.3,0.5-0.5,0.8-0.9c0.2-0.2,0.5-0.6,0.8-0.9c0.5-0.4,0.6-0.6,0.7-0.9c0.2-0.2,0.7-0.5,0.8-0.9c0.1-0.3,0.5-0.5,0.8-0.8
		c0.3-0.1,0.8-0.8,1.2-1.3c0.4-0.5,0.8-0.7,1.2-1.2c0.5-0.4,0.7-0.9,1.2-1.3c0.4-0.5,0.8-0.8,1.3-1.1c0-0.2,0.1,0,0,0.2
		c0.5-0.2,0.5-1,1.1-1C18.1,87.4,17.7,87.1,17.8,87.7z M15.4,88.7c-0.2,0.3-0.4,0.1-0.6,0.2c0.5-0.4,0.9-1,1.3-1.1
		C15.9,88,15.3,88.5,15.4,88.7z M17.9,85.7c-0.4,0.4-0.9,0.8-1.4,1.3c-0.5,0.5-0.8,0.7-1.2,1.1c-0.4,0.4-0.7,0.6-1.1,1
		c-0.2,0.2-0.5,0.4-1,0.8c0.3-0.4,0.6-0.5,1-0.9c0.4-0.4,0.7-0.6,1-0.9c0.2-0.4,0.6-0.4,0.9-0.8c0.3-0.3,0.8-0.6,1.1-1
		c0.4-0.3,0.8-0.7,1.1-1c0.3-0.2,0.6-0.6,0.8-0.7c0,0,0,0,0,0c0,0.1-0.1,0.3-0.2,0.3C18.8,85,18.3,85.4,17.9,85.7z"/>

    <path fill="#2B8C43" d="M34.2,90.3c0,0.1,0.3-0.6,0.9-0.7c0.1-0.1,0.3-0.2,0.5-0.2c0.5-0.4,1.1-0.4,1.3-0.9c0.4-0.3,0.6,0,0.9-0.5
		c0-0.3,0.7-0.4,1-0.6c0.4-0.3,0.5-0.5,1.2-0.9c0.3-0.4,1.1-0.5,1.1-0.5c0.1-0.1-0.1-0.2,0.2-0.3c0.4-0.5,0.8-0.7,1.1-0.6
		c0.5,0.1,0.7-0.1,1-0.6c0.6-0.2,1.5-0.7,2.2-1.1c0.7-0.3,1.5-0.7,2.2-1C47.8,82,48,81.9,48.2,82c0.4,0.1,0.4-0.2,0.4-0.3
		c-0.1,0,0.4-0.2,0.4-0.2c0.3-0.1,0.8-0.4,1.1-0.4c0.3-0.1,0.6-0.2,0.9-0.3c0,0,0.1,0,0.1-0.1c0.3-0.1,0.7-0.3,1.1-0.4
		c0.5,0.1,0.8-0.3,1.1-0.3c0.3,0,0.6-0.5,1.1-0.3c0,0,0.1,0,0.1,0.1c0.3-0.1,0.5-0.2,0.8-0.3c0.1,0,0.1-0.1,0.2-0.1
		c0.3-0.1,0.6-0.2,0.9-0.3c0,0,0,0,0,0c1.3-0.3,2.3-0.8,3.5-1c0.4,0,1.1-0.2,1.8-0.4c0.7-0.1,1.4-0.3,1.8-0.5c0.5,0,1-0.3,1.9-0.4
		c0.6-0.1,1.3-0.3,1.8-0.2c0.8-0.2,1.2-0.2,1.9-0.2c0.5,0,1.1-0.1,1.8-0.3c0.7-0.2,1.1-0.2,1.9-0.3c0.8-0.1,1.2-0.2,1.8,0
		c0.9-0.1,1.5,0,1.9,0.2c0.4,0,1,0.3,1.8-0.2c0.1,0.1,0.3,0.3,0.4,0.4c0.3-0.1,0.7-0.1,1,0.1c0.4,0.1,0.8,0,1.3,0.1
		c0.1,0,0.7-0.2,1.1,0c0.5,0.1,0.9,0.1,1.4,0.1c-0.2-0.4,0-0.2,0.1,0c0,0,0,0,0,0c0,0,0,0,0,0c0,0,0,0,0,0c0,0,0,0,0.1,0
		c0.5,0.1,0.8,0.3,1.1,0.1c0.7,0.3,0.8-0.1,1.2,0.1c-0.3,0,0.6,0.5,0.8,0.3c0.4,0.2,0.1,0,0.4,0c0.7,0,0.8,0.3,1.3,0.4
		c0.3,0.4,0.7,0.3,1,0.7c-0.4-0.6,1.8,0.8,1.3,0c0,0,0,0,0,0c0,0,0,0,0,0c-0.1-0.2,0.3-0.5,0,0c1,0.5,1.7,0.6,1.9,0.7
		c0.5,0.2,0.7,0,0.1-0.3c1,0.2,1.5,0.4,2.1,0.6c0.6,0,1.4,0.2,2,0.6c0.5-0.1,0.8,0.2,1.1,0.3c0.2,0,0.3,0,0.5,0
		c-0.2-0.1-0.3-0.2-0.6-0.2c-0.4-0.2-1.1-0.3-1.7-0.6c-0.6-0.2-1.1-0.3-1.6-0.5c-0.5-0.4-0.9-0.2-1-0.6c0-0.1,0.6,0.3,1,0.3
		c0.3,0.1,0.8,0.3,1.3,0.5c0.1,0,0.2,0,0.4,0c-0.1,0-0.3-0.1-0.4-0.3c0.5,0.1,1,0.2,1.3,0.4c0.1,0,0.2,0,0.3,0
		c-0.2-0.1-0.5-0.3-0.6-0.5c0.1,0,0.2,0,0.2,0c0,0,0,0,0.1,0c0,0,0,0,0,0c0.1,0.1,0.1,0,0,0c0.3,0.1,0.7,0.2,1.2,0.3
		c0.7,0.2,0.9,0.1,1.5,0.5c-0.3,0-0.5,0-0.7-0.1c0.3,0.2,0.6,0.4,1,0.3c0.4,0.1,0.9,0.4,1.7,0.5c0.3,0.2,0.7,0.2,1.2,0.4
		c0.1-0.1,0.8,0.2,1,0.5c0.2,0.1,0.5,0.5,1,0.5c0.3,0.5,0.8,0.6,1.1,0.5c0.4,0.4,0.7,0.2,1.1,0.5c0.6,0.2,0.4,0.1,1,0.4
		c0,0.2,0.4,0.3,0.8,0.6c-0.5,0-1.3-0.4-1.5-0.6c-0.1-0.4-0.9-0.3-1.3-0.7c-0.7-0.1-0.8-0.2-1.4-0.6c-0.5-0.4-0.7-0.4-1.3-0.5
		c-1-0.4-0.9-0.4-1.3-0.4c-0.1,0-0.2,0-0.2,0c0.1,0,0.2,0.1,0.2,0.2c0.7,0.4,0.8,0.3,1.4,0.6c0.7,0.3,1.7,1.4,0.6,0.6
		c0.1,0.3,0.6,0.6,1.2,0.6c0.4-0.4,1-0.1,1.2,0.7c-0.6-0.1-0.8-0.8-1.5-0.6c0.1,0.3,0.3,0.5,0.5,0.7c0.5,0,0.9-0.1,1.2,0.3
		c0.4-0.1,0.7,0.5,1.1,1c0.4-0.1,0-0.3,0.4-0.5c0.6,0.6,0.9,0.2,1.2,0.6c0.7,0.1,0.7,0.7,1.3,0.4c-0.2,0.1-0.2,0.1,0.1,0.2
		c-0.3-0.6-0.1-0.4,0.6-0.3c-0.1-0.1-1.1-0.8-1.3-0.8c-0.1-0.1-0.7-0.8-0.8-1c0.3,0.2,0.4,0,0.7,0.1c-0.2-0.1-0.4-0.2-0.7-0.3
		c-0.5-0.1,0-0.2,0.1-0.2c-0.7,0-1.3-0.1-1.9-0.7c-0.5,0.2-1-0.6-1.3-0.6c-0.4,0-0.7-0.4-1.3-0.6c-0.7-0.2-0.9-0.3-1.3-0.6
		c-0.6-0.1-0.7-0.5-1.3-0.6c-0.5-0.2-0.7-0.6-1.2-0.7c-0.1-0.1-0.1-0.1-0.2-0.1c0.2,0.1,0.5,0.2,0.8,0.2c0.7,0.7,0.9,0.8,1.6,0.4
		c0.5,0.3,1,0.6,1.7,0.6c-0.9-0.6-1-0.3-1.3-0.8c-0.6-0.1-0.5-0.1-1.8-0.6c0,0-0.1,0-0.1,0.1c-0.4-0.1-0.9-0.2-1.4-0.8
		c-0.1-0.1-0.1-0.2-0.2-0.2c0.5,0.1,1.2,0.1,2.1,0.3c0.9-0.1,1.9,0.5,1.3,1c0.4,0.1,1.2,0.1,1.7,0.3c0.8,0.3,1,0.1,1.3-0.1
		c-0.3,0-0.9,0.1-1.6-0.4c-0.2-0.4-1.1-0.2-1.5-0.7c0.3,0.3,1.1,0.4,1.6,0.4c0.6,0.1,1.2,0.2,1.6,0.5c0.7,0.6,1,0.3,1.5,0.7
		c0.2,0.3,1.1,0.7,1.5,0.7c0.6,0.4,1.1,0.3,1.5,0.7c0.2,0.4,1.2,0.6,1.5,0.6c-0.2-0.5-1-0.6-1.4-1.2c0.5-0.2,1.9,1,1.5-0.1
		c0.1,0-0.3-0.4-1.2-0.4c0-0.1-0.9-0.3-1.1-0.6c1.1,0.3,1.8,0.4,1.5-0.1c0.8,0.7,0.7,0,1.7,0.6c-0.4-0.5-0.2-0.6,0.1-0.7
		c0.3-0.2,0.2,0.4,0.3,0c-0.1-0.3,0-0.6-1-0.7c-0.3-0.2-0.8-0.5-1.1-0.6c-0.4-0.5-1.2-1-1.6-1.5c-0.1,0.1-0.1,0.1-0.2,0.1
		c-0.1-0.1-0.2-0.2-0.4-0.2c-0.2-0.1-0.5-0.3-0.9-0.4c-0.4,0.1-0.7,0-1,0c0.3,0.2,0.5,0.3,0.7,0.4c-0.3-0.1-0.7-0.1-0.9-0.1
		c-0.1,0-0.2,0-0.3,0c0.2,0.1,0.4,0.2,0.6,0.4c0.2,0.1,0.9,0.3,1.3,0.7c0.3,0,0.7,0.1,1.1,0.4c0,0-0.1-0.1-0.1-0.1
		c0.6-0.1,0.8-0.1,1.6,0.3c0,0.2-0.6,0.4-1.1,0.2c0.2,0.2,1,0.3,1.5,0.7c0.3-0.1-0.4-0.4-0.1-0.4c1,0.8-0.5,0.8-0.8,0.7
		c0.1-0.4-0.4-0.5-0.5-0.7c-0.5-0.1-1.1-0.8-1.3-0.8c-0.7-0.4-0.9-0.4-1.6-0.6c-0.4-0.1-1-0.3-1.5-0.4c-0.1-0.4-0.6-0.4-0.8-0.6
		c0-0.1-0.8-0.5-1.2-0.6c0.5,0,0.6,0.1,1,0.2c0.3,0.2,0.5,0.1,1.2,0.5c0.1,0,0.3,0,0.4,0.1c-0.2-0.1-0.4-0.2-0.7-0.3
		c-0.6-0.2-0.9-0.6-1.5-0.6c-0.5-0.5-1-0.5-1.8-0.6c-0.5-0.1-0.7-0.3-1-0.4c0.1,0,0.2,0,0.2-0.1c0.6,0.1,0.6,0.4,1.3,0.4
		c0.2,0,0.4,0,0.7,0.1c-0.4-0.2-0.7-0.2-1.2-0.3c-0.4-0.2-0.9-0.3-1.2-0.5c-0.1-0.1-0.2-0.1-0.3-0.2c0,0,0,0-0.1,0
		c-0.4-0.2-1.1-0.5-1.6-0.6c-0.6-0.3-1.3-0.3-1.8-0.6c-0.8-0.2-1.1-0.5-1.8-0.4c-0.7-0.1-1-0.5-1.6-0.5c0,0,0,0,0,0
		c0.7,0,0.7-0.1,1.5,0.2c0.6-0.1,1.2,0,1.7,0.5c0.4,0.3,1.1,0.3,1.7,0.6c0.6-0.2,1.3,0.4,1.6,0.6c0.5,0.3,1,0.5,1.7,0.6
		c0.2,0.2,0.9,0.4,1.3,0.6c0.2,0,0.3,0.1,0.4,0.2c0.3,0.1,0.6,0.2,1.2,0.4c0.4,0,1,0.4,1.6,0.5c-0.6-0.1-1.1-0.6-1.8-0.8
		c-0.4-0.2-1-0.4-1.4-0.6c-0.5-0.2-0.8-0.4-1.3-0.5c-0.5,0-0.5-0.5-1.2-1c-0.2,0.3-0.1,0.1-1.3-0.1c-0.2-0.1-0.7-0.5-1.1-0.6
		c-0.1-0.2-0.7-0.1-1.2,0c0-0.7,0.9,0.2,1-0.3c-0.4,0-1,0-1.4-0.3c-0.6,0-1-0.1-1.6-0.3c-0.8,0-1.3-0.3-1.8-0.4
		c-0.8-0.2-1.1-0.1-1.8-0.4c-0.4,0.1-1.4,0-1.8-0.3c-0.2-0.3-1.1-0.4-1.8-0.4c-0.9,0.2-0.8,0-1.7-0.4c-0.2,0-1-0.3-1.4-0.3
		c-0.2,0.2,0.4,0-0.3,0.4c0.3-0.7-2.3-0.7-0.9-0.6C84,70,83.9,69.8,83,69.4c-0.3,0-0.9-0.4-1.2,0c-0.6-0.1-0.6,0.1-1.1-0.2
		c0.2-0.2,0.1-0.1,0,0c-0.2-0.2-0.6-0.2-1.5-0.1c-0.6,0.2-1.2,0.1-1.6,0c-0.5-0.2-1-0.1-1.5-0.1c-0.3,0.1-1-0.2-1.6,0
		C74.4,69,74.3,69,74.2,69c0.1-0.1,0.3-0.1,0.3-0.2c0.5,0.1,0.8-0.1,1.5,0c0.3-0.1,0.8,0,1.5,0c0.4,0.3,1,0.1,1.6,0
		c0.5,0,1.1,0.1,1.5,0c-0.1,0-0.2,0-0.3-0.1c-0.6-0.1-1-0.1-1-0.3c-0.2-0.1-0.4-0.2-0.6-0.2c-0.2,0-0.4,0-0.6-0.3
		c0,0-0.1-0.1-0.1-0.1c-0.3-0.1-0.6-0.1-1,0c0,0,0,0.1-0.1,0.1c0,0,0,0.1,0,0.1c0,0,0,0,0,0c-0.2,0-0.5-0.1-0.8-0.1
		c-0.9-0.1-1.4,0.1-2.1,0c-0.8,0.3-1.6,0-2,0.1c-0.6,0-1.2,0.1-2,0.2c-0.8,0.2-1.2,0.1-2,0.2c-0.6-0.1-1.4,0.3-2,0.3
		C65.2,69,64.7,69,63.9,69c-0.7,0-1,0.6-1.9,0.4c-0.8,0-1.5,0.4-2.1,0.4c-0.5,0.2-1.5,0.2-1.8,0.4c-0.4-0.1-0.9,0.1-1.3,0.3
		c-0.2,0.1-0.5,0.2-0.7,0.2c-0.5,0.1-0.9,0.3-1.4,0.4c0,0-0.1,0-0.1,0c-0.1,0-0.3,0.1-0.4,0.1c0,0,0,0,0,0c-1.2,0.5-2.3,0.7-3.3,1.1
		c-0.2,0.1-0.4,0.1-0.5,0.2c-1.3,0.6-2.6,0.8-3.8,1.4c-1.4,0.2-2.4,1-3.7,1.6c-1.5,0.4-2.3,1.2-3.6,1.8c-1.3,0.4-2.3,1.3-3.5,2
		c-0.1,0-0.1,0-0.2,0c-0.3,0.1-0.6,0.2-0.9,0.4c-0.3,0.2-0.6,0.5-0.8,0.7c-0.2,0.2-0.4,0.3-0.6,0.5c-0.2,0.2-0.5,0.3-0.8,0.5
		c-0.9,1-2,1.4-3.1,2.2c0.4-0.2,0.9-0.4,1.3-0.6c1.3-0.6,2-1.4,2.8-1.8c0.9-0.5,1.7-1.5,2.8-1.4c-0.2-0.1-0.4-0.1-0.7,0
		c0.4-0.2,1-0.6,1.4-0.8c0.8-0.6,1.6-0.8,2.4-1.4c0.9-0.1,1.6-0.8,2.4-1.2c0.7-0.5,1.2-0.7,1.4-0.6c0.6,0,1.1-0.1,1.5-0.5
		c-0.1,0-0.1,0-0.1,0c0.1-0.1,0.7-0.6,1.2-0.7c0.9-0.6,2-0.9,2.4-0.8c1-0.5,1.9-0.7,2.8-1c0.1,0,0.2-0.1,0.3-0.1
		c0.5-0.2,1.1-0.3,1.7-0.5c0.5-0.2,1-0.3,1.4-0.5c0.7-0.1,1.3-0.2,1.6-0.4c0.4,0,0.8-0.3,1.3-0.4c0.3-0.3,0.9-0.1,1.2-0.3
		c0.4-0.2,0.6-0.4,1.1-0.3c0.2,0,0.4,0,0.7,0c0.2,0,0.4-0.1,0.6-0.1c0.5,0,1.1-0.1,1.6-0.4c0.5,0,1-0.3,1.7-0.3c0.5,0,0.9,0,1.1-0.1
		c0,0-0.1,0-0.1,0.1c-0.2,0.1-0.6,0.1-1.1,0.2c-0.7,0.1-0.9,0.3-1.2,0.2c-0.2,0.1-0.4,0.6-1.1,0.3c-0.4,0-1,0.1-1.2,0.2
		c-0.1,0-0.2,0-0.3,0.1c-0.2,0.1-0.6,0.1-0.8,0.3c-0.4,0.1-1,0.5-1.2,0.2c0-0.3,0.1-0.1-0.1,0c-0.4,0.2-0.9,0.2-1.5,0.5
		C56,71.9,55.5,72,55,72.1c-0.6,0-1,0.2-1.5,0.4C53,72.7,52.6,73,51.9,73c-0.3,0.1-0.6,0.2-0.9,0.3c-0.7,0.2-1.5,0.4-2.1,0.8
		c-0.7,0.6-2.1,0.6-3,1.2c-1.1,0.7-1.9,1.1-2.9,1.3c-0.7,0.1-1.4,0.6-2.5,1.1c-0.3,0.2-0.6,0.4-0.9,0.5c-0.3,0-0.5,0.2-0.9,0.4
		c0.1,0,0.2,0,0.2-0.1c-0.1,0.1-0.3,0.1-0.4,0.2c-0.4,0.3-0.9,0.7-1.3,0.9c-0.9,0.8-1.1,1-2.4,1.5c-1,0.9-1.8,1.4-2.4,1.6
		c-0.3,0.9-1.4,1.1-2.3,1.6c0,0-0.5,0-1.2,0.8c-0.6,0.6,0.4-0.2-1.1,0.8c-0.3,0.3-0.8,0.5-1.2,0.9c-0.4,0.2-0.7,0.5-1.1,0.8
		c-0.4,0.1-0.9,0.3-1.2,0.6c-0.5,0.3-0.7,0.6-1,1.1c-0.5,0.4-0.7,0.6-1,0.9c-0.3,0.2-0.5,0.5-1.1,0.9c-0.4,0.5-1.2,1-1.2,1
		c-0.5,0.2-0.9,0.6-1.3,1c-0.4,0.4-0.8,0.9-1.2,1c-0.5,0.4-1,0.6-1.1,1c-0.5,0-1.1,1.5-0.5,1.1c0.3-0.1,0.7-0.9,1.2-1.1
		c0.5-0.2,1.2-0.7,1.1-1.2c0.5-0.4,0.9-0.5,1.2-1.1c0.1-0.4,0.9-0.7,1.2-1.1c0.7-0.3,1.2-0.6,1.4-1c0.4-0.4,0.8-0.7,1-1.1
		c0.3-0.3,0.6-0.6,1.1-0.9c0.5-0.3,0.9-0.6,1.4-1c-0.2,0.4-0.3,0.6-0.5,0.7c0.2,0,0.4,0,0.6,0c-0.2,0.1-0.6,0.7-0.5,0.5
		c0,0-0.1,0-0.1-0.1c-0.1,0.1-0.3,0.2-0.3,0.4c0,0-0.6,0.7-1.1,1c-0.6,0.1-1.5,0.2-1.3,1.1c-0.7,0.4-1.1,1.1-1.3,1.1
		c-0.5,0.1-0.6,0.6-0.9,0.9c0.2-0.1,0.3-0.1,0.5-0.3c-0.6,0.8-0.9,0.7-1.2,1.3c-0.5,0.3-0.8,1.2-1.2,1.2c-0.4,0.4-0.9,0.9-1.1,1.3
		c-0.1,0.1-0.1,0.1-0.1,0.2c0,0,0,0,0,0c0.6-0.2,0.6-1,1.2-1.1c0.7-0.5,0.8-0.2,1.2-1.1c0.3-0.5,0.7-0.8,1.1-1.2
		c0.2-0.3,0.7-0.9,1.2-1.1c0,0,0.4-0.5,1.2-1.1c-0.2,0.1-0.2,0.6-0.2,0.6c0.1-0.2,0.3-0.3,0.4-0.4c0,0.1,0,0.1,0,0.2
		c-0.5,0.2-0.4,1-1.2,1.1c-0.4,0.3-0.9,0.7-1.1,1c-0.9,0.8-0.8,0.3-1.1,1.1c0,0.7-0.9,0.9-1.1,1.1c-0.4,0.2-0.9,0.8-1,1.2
		c-0.6,0-0.6,0.8-0.7,0.8c-0.2,0.3-0.8,0.2-0.8,0.8c-0.2,0.3-0.4,0.7-0.8,1c-0.3,0.4-0.7,0.5-0.8,0.9c-0.3,0.1-0.3,0.5-0.4,0.8
		c0.2-0.1,0.5-0.2,0.5-0.7c0.2,0,0.3-0.1,0.4-0.2c-0.1,0.1-0.2,0.3-0.3,0.5c-0.4,0.4-0.5,0.5-1,1.2c-0.3,0.5-0.7,0.6-0.8,1.1
		c-0.6,0.5-0.8,0.8-0.8,1c0,0.4-0.2,0.9-0.4,1c-0.5,0.8,0.1,0.7,0.2,0.9c0.1-0.2,0.3-0.3,0.6-0.4c0.2-0.6,0.3-0.9,0.7-1
		c0.6-1,1.1-1.2,1-1.7c-0.1,0.2-0.9,1.4-1.2,1.2c0.5-0.2,0.6-1.2,1-1.2c0.1-0.6,0.8-1.2,1-1.5c0.2-0.5,0.8-0.9,1.1-1.3
		c0.2-0.3,0.6-1.2,1.1-1.3c0.6-0.1,0.9-1.1,1.1-1.4c0.7-0.4,1.1-1.1,1.2-1.1c0.5-0.2,0.6-0.8,1.1-1.2c0.3-0.9,0.5-0.7,1.2-1.2
		c0,0.1-0.1,0.2-0.1,0.2c0.8-0.2,0.1-0.6,1.2-1c-0.1,0.3,0.2,0.6-0.1,0.8c0.3,0.2-0.5,0.8-1,1.1c0.2-0.3,0.3-0.6,0.1-0.4
		c-0.6,0.3,0,1-0.6,0.8c0.7,0.2-0.1,0.2-0.1,0.1c-0.1,0.1-0.6,0.3-0.7,0.7c0.3,0.3-0.2,0.5-1,1c-0.6,0.4-0.7,0.6-1.1,1.1
		c-0.3,0.3-0.6,0.7-1,1.1c-0.4,0.9-1,1-1,0.8c0,0.2-0.4,1-0.7,1.3c-0.3,0.6-0.7,0.7-1.1,1.4c-0.3,0.4-0.3,1.3-1,1.3
		c-0.2,0.6-0.6,0.8-1,1.3c-0.4,0.4-0.9,1.2-1.1,1.4c-0.1,0.2-0.3,0.4-0.4,0.6c0.1-0.3,0.1-0.7,0.6-0.9c0-0.1,0-0.2,0-0.3
		c-0.3,0.4-0.3,0.6-0.8,1.2c-0.4,0.1-0.5,0.8-0.4,1.2c0.2-0.5,0.3-0.5,0.5-0.8c-0.1,0.1-0.1,0.2-0.1,0.4c0,0.2-0.7,0.9-0.8,1.4
		c-0.3,0.7-0.1,1.1-0.6,1.4c0.4,0.3,0.5-0.4,0.4,0.2c0-0.2-0.6,0.7-0.9,1.8c0.1,0.4-0.7,1.2-0.4,1.7c-0.1-0.8,1-0.2,1.1-0.2
		c0,0.6-1,0.9-0.3,1.3c-0.3,0.3-0.2,0.7,0.1,1c0.6,0,0.3-0.2,0.7-0.9c0-0.7,0.2-0.8,0.5-1c0,0.4,0.6-1,0.5-1.1
		c0.3-0.2,0.5-1,0.6-1.1c-0.1-0.2,0.4-0.5,0.6-1c-0.3-0.5,0.5-0.8,1.2-0.7c0.4-0.8,0.2-0.8,0.6-1.6c0-1.1,0.8-0.8,1-1.4
		c0.9-0.3,1-1.2,1.3-1.7c0.5-0.8,0.8-0.8,0.9-1.3c0.5-1,1-1.1,1.2-1.4c0.3-0.9,0.9-0.9,1.1-1.5c0.2-0.3,0.7-0.7,1.3-1.5
		c0.6-0.8,1.1-1.1,1.1-1.2c0.4-0.5,0.9-0.7,1.1-1.3c1.3-1.1-0.1-1.1,1.5-1.2c-0.4-0.8,1.2-0.7,1.3-1.2c1.1-0.4,0.3-1.1,1.4-1.2
		c0.2-0.5,1.2-0.8,1.4-1.1c0.5-0.4,1.4,0,1.4-1.1c0.1-0.4,0.6-0.8,1-0.9c0.4-0.1,0.7-0.2,0.8,0.1c0.4,0.3-0.1-1.2,0.8-0.6
		c0.3-0.2,0.7-0.9,1.1-0.9C33.7,90.5,33.7,90.4,34.2,90.3z M108.9,76.8c-0.1,0-0.2-0.1-0.3-0.1c0.1,0,0.3,0,0.5,0c0,0,0,0,0,0
		C109.1,76.8,109,76.8,108.9,76.8z M83.5,70.6c0,0,0.1,0,0.1,0C83.5,70.7,83.5,70.7,83.5,70.6z M83.7,70.6
		C83.7,70.6,83.7,70.6,83.7,70.6C83.7,70.6,83.6,70.6,83.7,70.6C83.7,70.6,83.7,70.6,83.7,70.6z M90,78c0.3-0.1,0.2,0.2,0.5,0.2
		c0,0,0,0,0,0C89.9,78.5,89.5,78.1,90,78z M90.5,78.3C90.5,78.3,90.5,78.3,90.5,78.3C90.2,78.4,90.4,78.4,90.5,78.3z M94.7,76.7
		c0.2,0,0.5,0,0.4,0c0,0.1,0.1,0.2,0.2,0.2c-0.2-0.1-0.3-0.1-0.5-0.2C94.9,76.8,94.8,76.8,94.7,76.7z M96.3,77.2
		C96.3,77.2,96.3,77.2,96.3,77.2c-0.4,0-0.6-0.1-0.9-0.2C95.8,77.1,96.2,77,96.3,77.2C96.3,77.2,96.3,77.2,96.3,77.2z M97.7,74.6
		c0.9-0.2,0.8,0.4,1.6,0.6c-0.2,0-0.3,0-0.5,0C98,75,97.5,74.8,97,74.9c-0.1,0,0-0.2-0.1-0.3C97.2,74.5,97.6,74.5,97.7,74.6z
		 M96.8,74.3C96.8,74.3,96.8,74.3,96.8,74.3C96.8,74.3,96.8,74.3,96.8,74.3z M98.7,77.4c0.1-0.1,0.3,0,0.6,0.1
		C99.1,77.5,98.9,77.4,98.7,77.4z M99.8,77.7c0.1,0,0.2,0.1,0.3,0.1c-0.1,0-0.1,0-0.1,0C99.9,77.7,99.9,77.7,99.8,77.7z M102,78
		c-0.7,0-1.4-0.3-1.4-0.9c0.2,0.7-0.8,0.3-1.2,0.1c0.2,0,0.3-0.1,0.4,0c-0.2-0.2-0.4-0.2-0.6-0.2c0,0,0,0,0,0
		c-0.2,0-0.5,0.1-0.8-0.1c-0.3,0.3-0.5,0.3-0.7-0.3c-0.2,0-0.9-0.2-0.7-0.3c-0.1,0,0.9-0.2,0.7,0c0.7-0.1,0.8,0.1,1.4,0.3
		c0,0.2,1.3,0.7,1.5,0.5c0.7-0.1,0.9-0.2,1.4,0.2c0.4-0.4,0.8,0.3,1.2,0.5C102.8,77.8,102.2,77.8,102,78z M103.3,77
		c-0.5-0.5-1.5-0.7-1.9-0.9c-0.9-0.1-1.3,0-2.1-0.4c-0.3,0.3-1-0.2-1.1-0.4c-0.7-0.3-0.4,0-1.1-0.4c0.4,0.2,0.4,0.1,1.1,0.3
		c0.3,0.2,0.9,0.5,1.4,0.3c0.6,0.3,0.6,0.1,1.2,0.4c0.3,0,0.6,0.1,1.1,0.2c0.7,0.2,1.2,0.8,1.9,0.6C103.6,76.9,103.6,76.8,103.3,77z
		 M105.1,76.6c0.1,0.3,1.2,0.5,1.5,0.5c0.3,0.3,0.6,0.5,1,0.7c-0.3,0-0.6-0.1-0.9-0.3c0.4,0.2,0.6,0.4,1.2,0.6
		c0.4-0.2,0.9,0.6,1.3,0.4c0.3,0.1,0.7,0.3,1.2,0.5c0.5,0,0.4,0.3,1.1,0.8c-0.4-0.3-0.9-0.4-1.2-0.6c-0.5,0-1-0.5-1.3-0.6
		c-0.5-0.2-0.6-0.5-1.3-0.4c-0.4-0.3-0.9-0.7-1.3-0.5c-0.2-0.1-0.1-0.3-0.4-0.8c0.5,0.8-0.6,0.3-0.7,0.6c-0.3-0.1-0.4-0.3-0.6-0.4
		c-0.4-0.2-0.7-0.4-0.9-0.7c0.3,0.1,0.5-0.1,0.1-0.4C104.2,76.4,104.6,76.7,105.1,76.6z M103.7,75.8c0.3,0.1,0.1,0.4-0.4,0.5
		c-0.4-0.1-1.3-0.6-1.4-0.6c-0.5-0.3-1.2,0-1.5-0.5c-0.7-0.3-1.1-0.4-1.6-0.5c-0.4-0.2-1.2-0.4-1.5-0.5c0.3-0.3,1,0.3,1.1,0
		c-0.1,0,0,0,0.1,0c0.4,0.4,1.1,0.5,1.4,0.4c0.5,0.1,0.6,0.1,1.2,0.3c0.4,0.2,1,0.3,1.3,0.5C102.8,75.7,103.2,75.7,103.7,75.8z
		 M101,74.6c0.1-0.5,0.4-0.2,0.7-0.1C101.5,74.4,101.3,74.4,101,74.6z M99.8,73.7c0.3,0.1,0.6,0.2,0.9,0.3c-0.1,0-0.2,0.1-0.4,0.1
		c-0.2-0.1-1-0.3-1.7-0.3c0.1,0,0.2-0.2,0.1-0.2c0.1,0,0.3-0.1,0.4,0c-0.2,0-0.3-0.1-0.5-0.2C99.1,73.6,99.6,73.7,99.8,73.7z
		 M98.7,73.7C98.7,73.7,98.7,73.6,98.7,73.7C98.7,73.6,98.7,73.6,98.7,73.7z M98.5,73.7c0,0.1-0.1,0.2-0.2,0.1c-0.7,0.2-0.6,0-1-0.3
		C97.3,73.4,98,73.7,98.5,73.7z M94.4,72.2c0.4,0.1,0.7,0.2,0.9,0.3c-0.3-0.1-0.6-0.1-0.8-0.1c-0.1,0-0.2-0.1-0.3-0.2
		C94.4,72.3,94.5,72.4,94.4,72.2z M94.8,73.8c0.4,0.4,1,0.3,1.5,0.3c0,0,0,0,0,0c-0.4,0-0.8,0-0.9,0.1c-0.6-0.1-1.2-0.4-2-0.6
		C93.6,73.7,94.2,73.8,94.8,73.8z M92.8,77.8c0.1-0.1,0.7,0.2,1.1,0.3c0,0,0,0,0,0c-0.2-0.1-0.4-0.1-0.8-0.2
		c-0.4-0.1-1.2-0.3-1.7-0.4C91.7,77.3,92.6,77.9,92.8,77.8z M91.3,71.5c-0.3-0.3-1.4,0-1.2-0.2C90,71.3,91.9,71.2,91.3,71.5z
		 M90.3,71.2c-0.1,0-0.1,0.1-0.2,0.1c0.1,0-0.1-0.2-0.3-0.3C90.1,71,90.2,70.9,90.3,71.2z M90.2,71.3c0,0-0.1,0-0.1,0
		C90.1,71.3,90.1,71.3,90.2,71.3z M89.7,71C89.7,71,89.7,71,89.7,71C89.8,71.1,89.4,71,89.7,71z M86.3,76.5c0.7,0.2,1.2-0.1,1.5,0.2
		c0.4,0,0.6,0.2,1.3,0.2c0.5-0.1,1,0.2,1.3,0.2c0.4,0.2,1-0.1,1.5,0.4c-0.6-0.2-1.2,0-2-0.2c-0.8,0.1-1.3,0-2.1-0.3
		c-0.6,0.1-1.1-0.3-1.6-0.3c-0.6-0.4-1.1-0.2-1.7-0.2c0,0.2-0.4,0.1-0.5,0c-0.2,0-0.3,0-0.4,0c0.3-0.3,0.1-0.2,0-0.2
		c-0.1,0,0.5-0.1,0.6,0.1c-0.1,0.3,0.6-0.4,0.3,0c0,0.1,0.3-0.3,0.3,0C85,76.2,85.8,76.6,86.3,76.5z M84,70.6c0.1,0,0.2,0,0.3,0.1
		C84.3,70.7,84.2,70.6,84,70.6z M85.4,74.2C85.4,74.2,85.4,74.2,85.4,74.2C85.1,74.2,85.2,74.2,85.4,74.2z M85.2,70.7
		c0.1,0-0.3,0-0.6,0c0.1-0.1-0.4-0.2-0.7-0.2c0,0,0,0-0.1,0C84.6,70.6,85.3,70.5,85.2,70.7z M83.6,70.4
		C83.6,70.4,83.6,70.4,83.6,70.4c0,0-0.1,0-0.2,0C83.3,70,83.6,70.2,83.6,70.4z M81.3,76c0,0,0.5,0,0.7,0.1c0.6,0.1,0.3,0.1,0.8,0.3
		c-0.7,0-0.9-0.3-1.2-0.1c0,0,0,0,0,0c0-0.3-0.3-0.1-0.2,0c-0.1,0,0,0-0.1,0c-0.4,0.2-0.2-0.2-0.3-0.4C81.1,76.1,81.5,76,81.3,76z
		 M79.4,75.9c0.2,0,0.5-0.2,0.5,0c0,0.2-0.1,0,0.1,0.1c-0.1,0.1-0.2,0.2-0.3,0.2c0,0,0,0,0,0c0,0,0,0,0,0c-0.1-0.1,0-0.1-0.1,0
		c0,0,0,0,0,0c0,0,0,0,0,0c0,0,0,0,0,0c0,0,0,0,0-0.1c0,0,0-0.1-0.1-0.1C79.1,76,79.3,76.1,79.4,75.9z M35,80
		c0.1,0.1,0.2,0.1,0.3,0.1C35,80.2,34.8,80.3,35,80z M72.6,68.9c0.1,0,0.2,0,0.3,0c0,0,0.1,0,0.1,0.1C72.9,68.9,72.7,68.9,72.6,68.9
		z M24.2,91C23.9,91.2,23.9,91,24.2,91L24.2,91z M16.7,99.1c-0.3,0.5-0.8,0.9-1.1,1.2c-0.3,0.3-0.5,0.5-0.6,0.7
		c0.1-0.2,0.1-0.5,0.2-0.6c0.4,0,0-0.2,0.7-0.8c0.6,0.1,0.3-0.7,0.8-0.9C16.9,98.9,16.3,99,16.7,99.1z M16.8,99
		c0.1-0.5,0.6-1,1.1-1.3c0,0,0.1,0,0.1,0C17.4,98.1,17.2,98.5,16.8,99z M20.4,95.7c-0.1-0.1-0.4,0.1-0.6,0.2c0,0,0,0,0,0
		c-0.2,0.2-0.3,0.2-0.5,0.3c0,0-0.1,0.2-0.3,0.4c0.1,0,0.2-0.1,0.3-0.1c-0.3,0.4-0.6,0.6-1.1,1.1c-0.1,0-0.1,0.1-0.2,0.1
		c0.2-0.2,0.2-0.5,0.6-0.6c0-0.1,0-0.2,0-0.3c-0.1,0.1-0.2,0.1-0.3,0.2c0.3-0.6,0.3-0.3,1-0.9c0.3-0.1,0.4-0.2,0.9-1
		c0.1,0,0.2-0.1,0.3-0.1c0,0.1-0.1,0.1-0.1,0.2c-0.1,0.2-0.3,0.3-0.4,0.5c0.2-0.1,0.5-0.3,0.8-0.4C20.7,95.3,20.6,95.5,20.4,95.7z
		 M21.5,94.1c-0.1,0.1-0.3,0.2-0.4,0.4c0-0.1,0.1-0.2,0.1-0.3c-0.1-0.5,0.4-0.5,1-0.9c0.2,0.1,0.4,0,0.5-0.2
		C22.6,93.4,21.8,94.2,21.5,94.1z M23.9,91.9c-0.5,0.1-0.6,0.6-1.1,0.9c0.1-0.2,0.2-0.3,0.3-0.5c0.1-0.4,0.5-1.1,1-0.8
		C24,91.6,23.8,92.3,23.9,91.9z M24.2,91.1C24.2,91.1,24.2,91.1,24.2,91.1c0.1-0.1,0.1-0.1,0.1,0C24.2,91.1,24.2,91.1,24.2,91.1z"/>

    <path fill="#70C8BC" d="M33.2,100.4c0,0-1.1,0.6-1.1,0.9c-0.3,0.2-0.6,0.4-0.8,0.7c0,0.1-0.1,0.1-0.1,0.1c0,0-0.1,0.1-0.1,0.1
		c-0.4,0.5-1.1,0.4-0.2,0.1c0.1,0,0.2-0.1,0.3-0.2c0,0,0.1-0.1,0.1-0.1c0.3-0.4,0.6-1.1,1-1.1c0.1-0.5,0.8-1.1,1.5-1.3
		c0.3-0.4,0.2-0.7,0.5-0.9c0.1-0.2,0.5-0.4,1-0.4c0.5-0.4,1.2-0.9,1.6-1.2c0.7-0.8,0.5-0.9,1.6-1.2c0-0.2-0.2-0.8,0.4-0.9
		c0.4-0.4,0.8-0.6,1.3-0.3c0.7-0.7,1.2-0.8,1.6-1.2c0.6-0.1,1.1-0.5,1.8-1c0.7-0.3,1.3-0.6,1.9-1c0.6-0.3,1.2-0.7,1.6-1
		c1.3-0.7,2.4-1.2,3.7-1.8c1-0.5,2.2-0.8,3.1-1.3c1-0.4,2.3-0.9,3.2-1.2c1.3-0.4,2.3-0.9,3.3-1c1.1-0.5,2.3-0.5,3.3-0.8
		c0.6-0.1,1.3-0.2,1.8-0.3c0.6,0,1.1-0.2,1.6-0.4c0.5-0.1,1-0.1,1.6-0.2c0.6-0.1,1.2-0.3,1.8-0.3c0.3,0.4,0.8,0.5,1.1,0.5
		c0.4-0.2,0.7,0.1,1,0.2c-0.4,0.1-0.8,0.1-1.2,0.2c-0.4,0.1-0.8,0.3-1.2,0.1c-0.4,0-0.9,0-1.2,0.1c-0.5,0.2-0.8,0-1.2,0.1
		c-0.5,0.1-0.9,0.2-1.2,0.2c-0.5,0.1-0.8,0.1-1.2,0.2c0.3-0.1,0.8-0.1,1.2-0.1c0.3,0,0.9-0.1,1.3-0.1c0.5,0,0.9-0.1,1.2-0.1
		c0.5,0,0.8-0.1,1.2-0.1c0.5,0,0.8,0.1,1.2-0.1c0.5,0,0.9,0,1.2-0.1c0,0-0.1-0.1,0,0c0,0,0,0,0,0c0,0,0,0,0,0c0.8,0,1.3-0.1,1.9-0.1
		c0.6-0.1,0.9,0,1-0.4c-0.8-0.2,0.7-0.2,0.8,0.5c0.2-0.2,0.2-0.1,0.2-0.4c0.9,0.1,1.8,0.2,2.9,0.3c0,0,0,0,0,0c0,0,0,0,0,0
		c0.2,0,0.4,0,0.6,0.1c0.6,0.1,1.2,0.1,1.8,0.2c0.3,0,0.5,0,0.8,0.1l0,0c0,0,0.1,0,0.1,0c0,0,0,0,0.1,0c0.6,0,1.2,0.1,2,0.2l0.1,0
		c0.8,0.1,1.6,0.1,2.2,0.1c-0.2,0-0.3,0-0.5-0.1c-0.9-0.2-1.9-0.4-2.9-0.5l-0.4-0.1l0.1,0l-0.5,0l0-0.2l0.6,0.1l0.3,0l0.2,0
		c0.8,0.2,1.8,0.3,2.7,0.4c0.8,0.1,1.5,0.2,2.3,0.3c0.4,0.1,0.9,0.3,1.3,0.4c-0.9-0.1-1.9-0.2-2.9-0.3c0.2,0.4-0.8-0.2-0.8,0.3
		c0,0,0.1,0,0.1,0.1c0.4-0.1,1.1,0.1,1.8,0.3c0.7,0.2,1.2,0.3,1-0.1c0.4,0.3,0.7,0.5,1.1,0.7c0.4,0.2,0.7,0.3,1,0.4
		c0.5,0.2,0.9,0.3,1.4,0.2c0.6,0.1,1,0.3,1.3,0.5c0.3,0,0.6,0.1,0.7,0.2c0,0,0,0,0.1,0c-0.3-0.1-0.7-0.3-1.2-0.5
		c-0.2-0.2-0.4-0.3-0.5-0.3c0.5,0.1,0.8,0.2,1.3,0.3c0.3,0.4,0.8,0.1,1.2,0.4c0.3,0,0.6,0.1,0.9,0.1c0.1,0,0.3,0,0.4,0
		c-0.5-0.2-1.2-0.5-1.7-0.5c0,0-0.1,0-0.1-0.1c0.1,0,0.3,0,0.4,0c-0.5-0.4-1.1-0.4-1.3-0.7c-0.1-0.3,0.1-0.2,0.2-0.1
		c0,0-0.1,0-0.2,0c0.1,0,0.1,0,0.2,0.1c0,0,0,0,0,0c0,0,0,0,0,0c0.4,0.1,0.8,0.4,1,0.3c0.1,0,0.2,0.1,0.4,0.1
		c-0.1,0-0.1,0.1-0.2,0.2c0.7,0.3,1,0.1,1.4,0.4c0.3,0,1,0.3,1.5,0.5c0.7,0.5,1.1,0.2,1.4,0.6c0.7,0.5,0.9,0.2,1.4,0.6
		c0.8,0.1,0.6,0.4,1.4,0.6c0,0.1,0,0.1,0,0.2c-0.2-0.1-0.4-0.2-0.4-0.2c-0.2,0-0.7-0.4-1.2-0.5c-0.2,0-0.8-0.2-1.2-0.4
		c-0.6-0.2-0.5-0.2-1-0.4c-0.2-0.2-0.5-0.2-0.8-0.2c0.1,0.1,0.3,0.2,0.6,0.3c0.6,0.2,1,0.2,1.3,0.6c0.2,0.3,0.4,0.5,0.6,0.6
		c0,0,0,0-0.1,0c-0.3,0.6,0.3,0.4,1,0.6c0.4-0.5,0.7,0.3,1,0.7c-0.4-0.3-0.9-0.7-1.3-0.5c0.4,1,0.4,0.8,1.2,1
		c0.5,0.1,0.5,0.3,1.2,0.8c0.4,0.3,0.4-0.2,0.4-0.5c0.7,0.2,0.8,0.3,1,0.6c-0.1,0.2,0.9,0.1,1.1,0.3c-0.1,0.4,0.3,0.6,0.1,0.2
		c0.4-0.2,0.5,0,0.5-0.3c-0.2-0.1-0.3-0.4-0.5-0.6c0.1,0,0.3,0,0.4,0c0.3,0.2,0.6,0.1,0.9,0c-0.3-0.1-0.8-0.6-1.1-0.6
		c-0.7-0.3-0.8-0.9-1.4-0.7c0-0.1-0.1,0.1,0.1-0.2c-0.2-0.3-1.1-0.6-1.7-0.6c-0.6-0.4-0.9-0.7-1.2-0.6c0-0.4-0.6-0.4-1.1-0.5
		c-0.3-0.2-0.9-0.4-1-0.6c-0.3-0.1-1.1-0.5-1.2-0.6c-0.2-0.3-0.9-0.3-1.1-0.6c-0.4-0.2-0.9-0.3-1.1-0.7c0.5,0.1,1,0.5,1.7,0.7
		c0.7,0.4,1.3,0.5,1.4,0.4c0.4,0,0.9,0.4,1.5,0.5c-0.3-0.6-0.7-0.4-1.1-0.7c-0.4,0-0.8-0.5-1.6-0.5c0,0.1,0.1,0,0.1,0.1
		c-0.3,0-1.3-0.5-1.4-0.7c-0.5-0.2-0.8-0.7-1.4-0.7c0.2-0.2,0.8,0.1,1.2,0.3c0,0.1,0,0.1,0.1,0.1c0,0,0,0-0.1,0
		c0.4-0.1,1.2-0.1,1.9,0.2c0.9-0.1,1.4,0.5,1.1,0.9c0.3-0.1,0.7,0.2,1.5,0.2c0.5,0.1,1.1,0.2,1.1-0.2c-0.5,0-1.2,0-1.4-0.3
		c-0.5-0.1-1-0.3-1.3-0.6c1.1,0,1.9,0.2,2.8,0.8c0.7,0.4,1.7,1.1,2.6,1.3c0.5,0.1,1.4,1,2.7,1.1c0-0.5-1.1-0.7-1.2-1.1
		c0.7-0.3,1.6,0.5,1.4-0.2c-0.9-0.4-1.6-0.2-2-0.8c0.3,0,0.5,0,0.7,0c-0.7-0.3-1.4-0.8-2.1-1c-0.7-0.4-1.6-0.5-2.3-0.8
		c-0.1-0.1-0.2-0.2-0.3-0.3c-0.2,0-0.5-0.1-0.6,0.1c-0.4-0.2-0.8-0.5-0.9-0.6c0.2-0.1,0.8,0.3,1.2,0.3c-0.3-0.3-0.9-0.5-1.6-0.7
		c0.5-0.1,0.4-0.3,0.1-0.4c0.4,0.3,1.3,0.4,1.8,0.7c0.7,0.2,1.4,0.7,1.8,0.8c0.7,0.2,0.7,0.5,0.6,0.4c-0.2,0.1-0.6-0.4-1.7-0.4
		c0.3,0.2,0.6,0.3,1,0.5c0.4,0.2,0.8,0.3,1.1,0.4c0.7,0.4,1.5,0.8,2,1.1c0.6,0.1,0.8,0.1,0.7-0.2c0.5,0.4,0.9-0.1,1.3,0.2
		c-0.1-0.2-0.1-0.5,0.3-0.4c-0.2-0.4,0.4,0.5,0.2,0c-0.4-0.1-0.8-0.5-0.9-0.7c-0.1-0.4-0.4-0.1-1-0.6c-0.3,0-1.3-0.8-1.4-1.4
		c0,0,0,0,0,0c-0.3-0.4-0.7-0.3-1.2-0.3c0,0-0.1,0-0.1,0c-0.4-0.1-0.6,0.2-0.9,0c0.4,0.1,0.8,0.3,1.2,0.4c0.3,0,0.6,0.2,1,0.1
		c-0.3,0.1-0.6,0-1.1,0c-0.2,0.1-0.7,0-1.3-0.3c-0.6-0.2-0.9-0.6-1.3-0.4c0.1,0,0.2,0.1,0.3,0.1c0.5,0.2,0.8,0.3,1.2,0.5
		c0.5,0.1,0.5,0.3,1.2,0.6c0.2,0.1,0.4,0.2,0.6,0.3c-0.1,0-0.2,0-0.4-0.1c-0.6-0.4-1.1-0.7-1.5-0.6c-0.4-0.1-1.1-0.2-1.3-0.3
		c0.1-0.4-0.4-0.4-0.7-0.6c-0.6-0.1-0.8,0-1.2-0.5c0.3,0,0.4,0,0.7,0.1c-0.1,0-0.2-0.1-0.2-0.2c-0.5,0-0.9-0.3-1.4-0.4
		c-0.3-0.1-1-0.4-1.7-0.3c0-0.7,1,0.3,0.9-0.2c0.4,0.1,0.5,0.3,1.1,0.4c0.2,0.3,0.7,0.1,1,0.2c0,0,0,0,0.1,0c0,0,0,0-0.1,0
		c0,0,0.1,0,0.1,0.1c0.4,0.2,0.8,0.4,1.1,0.4c0.3,0.2,0.6,0.1,0.9,0.1c-0.4-0.2-0.7-0.2-1.2-0.5c-0.3-0.1-0.8-0.4-1.3-0.5
		c-0.4-0.2-1.1-0.3-1.2-0.6c-0.6-0.1-0.7-0.4-1-0.8c-0.1,0.6-0.4,0.2-1.1,0c-0.6-0.5-1.5-0.5-2-0.6c0.2-0.5,1.2,0.4,0.9-0.3
		c-0.1,0-0.8-0.2-1.3-0.3c-0.5,0-0.9,0-1.4-0.1c-0.5-0.1-1.1-0.5-1.6-0.4c-0.5-0.1-1.1-0.1-1.5-0.3c-0.6-0.2-1-0.5-1.6-0.4
		c-0.5-0.2-1-0.2-1.5-0.3c-0.6,0.2-0.9-0.5-1.4-0.3c-0.3,0.2-1-0.3-1.3-0.3c0.2,0.1,0-0.1-0.2,0.4c0.1-0.3-0.2-0.4-0.5-0.5
		c-0.1,0-0.2,0-0.3,0c-0.1,0.4-0.3,0.3-0.8,0.2c-0.1,0-0.2,0-0.4,0c-0.6,0.4-0.9,0.1-2-0.1c0,0,0-0.1-0.1-0.1
		c-0.5,0.1-0.9-0.1-1.4-0.2c-0.1,0-0.8,0-1.4,0c-0.6,0.4-0.9,0.1-1.3,0.1c-0.5,0.1-0.8-0.1-1.4-0.2c-0.6,0.2-0.5,0.1-1.4-0.1
		c-0.5,0-1.1,0.3-1.3,0.1c0,0,0,0,0,0c0.6,0,1.1-0.1,1.4-0.1c0.3-0.1,0.7,0,0.9,0c0.1,0,0.2,0,0.3,0c0,0,0,0,0,0c0,0,0.1,0,0.1,0
		c0.5,0.1,0.8,0.1,1.5,0.1c0.7-0.1,0.8,0.2,1.1-0.1c0.1,0,0.2,0,0.2,0c0.4,0,0.6-0.3,1.1,0c0.6,0.1,0.9,0,1.4-0.1
		c0-0.2-0.5-0.3-1.1-0.3c-0.2,0-0.4,0-0.6-0.1c-0.1,0-0.1-0.1-0.2-0.1c-0.2-0.1-0.3-0.3-0.4-0.4c-0.8,0.5-1.4,0.3-1.8,0.2
		c-0.4-0.2-1-0.3-1.9-0.2c-0.6-0.2-1.1-0.2-1.8,0c-0.8,0.1-1.1,0.1-1.9,0.3c-0.6,0.2-1.2,0.3-1.8,0.3c-0.7,0-1.1,0-1.9,0.2
		c-0.5-0.1-1.2,0.1-1.8,0.2c-0.8,0.2-1.4,0.4-1.9,0.4c-0.4,0.2-1.1,0.3-1.8,0.5c-0.7,0.2-1.4,0.3-1.8,0.4c-1.3,0.2-2.2,0.7-3.5,1
		c0,0,0,0,0,0c-0.4,0.1-0.7,0.3-1.1,0.4c-0.3,0.1-0.5,0.2-0.8,0.3c-0.6,0.2-1.1,0.3-1.6,0.5c-0.6,0.2-1.3,0.3-1.7,0.6
		c0,0-0.1,0-0.1,0c-0.6,0.1-1.1,0.4-1.6,0.7c-0.6,0.2-1.2,0.5-1.8,0.7c-0.6,0.2-1.1,0.5-1.6,0.8c-0.6,0.3-1.3,0.4-1.9,0.9
		c-0.6,0.4-1.3,0.9-1.8,1c-1,0.2-1,0.8-1.9,1c-0.2,0.1-0.3,0.2-0.4,0.2c-0.8,0.4-0.8,0.5-1.2,0.9c-0.2,0.2-0.9,0.4-1,0.6
		c-0.4,0.6-0.5,0.3-0.9,0.5c-0.3,0.5-0.8,0.5-1.3,0.9c0.1,0,0.3-0.1,0.5-0.1c0.4,0.1,0.9-0.8,1.4-0.7c0,0,0.1,0,0.2,0
		c0.1,0,0.3-0.1,0.5-0.2c0.2-0.1,0.3-0.3,0.5-0.5c0,0,0,0,0.1-0.1c0.6-0.4,0.9-0.1,1.4-0.7c0.1-0.1,0.2-0.2,0.2-0.2
		c-0.1,0-0.1-0.1-0.2-0.1c0,0-0.1,0-0.1-0.1c0,0,0.1-0.1,0.1-0.1c0.5-0.4,1.7-0.8,1.8-0.6c0.5-0.1,0.7-0.4,1-0.5
		c0.6,0,0.7-0.3,1.1-0.6c0.3-0.4,0.8-0.5,1.1-0.6c0.3-0.2,0.9-0.3,1-0.5c0.5-0.3,0.9-0.3,1.3-0.5c0.4-0.1,0.7-0.3,1.2-0.5
		c0,0.1,0,0,0.1,0c0,0,0,0-0.1,0c0,0,0.1,0,0.1,0c0.2-0.1,0.5-0.3,0.9-0.5c0.2-0.1,0.6-0.3,1.1-0.5c0.1,0,0.2,0,0.3,0
		c0.3,0,0.6-0.1,0.7-0.2c0.8-0.4,1.1-0.5,1.8-0.6c0.6-0.1,1.1-0.3,1.8-0.6c1.2-0.5,2.4-0.8,3.5-1c0.5-0.1,0.9-0.2,1.3-0.3
		c0.1,0,0.2-0.1,0.3-0.1c0.4-0.1,0.8-0.3,1.3-0.3c0.2-0.1,0.5-0.2,0.8-0.3c0.2,0,0.5-0.1,0.8-0.1c0.1,0,0.2,0,0.3,0
		c0.7-0.1,1.5-0.2,2-0.2c0.1-0.1,0.2-0.1,0.4-0.1c0.2-0.1,0.4-0.1,0.6-0.1c0.3,0,0.4,0,0.6,0c-0.1,0-0.3,0.1-0.7,0.2
		c-0.5,0-0.9,0.2-1.3,0.2c-0.6,0-0.9,0.3-1.7,0.3c-0.3,0.2-0.6,0.2-1.2,0.4C62,78.9,61.3,79,60.6,79c-0.1,0-0.1,0-0.1,0
		c0,0,0,0,0,0.1c-0.1,0.1-0.2,0.1-0.3,0.2c-0.6,0.3-1.4,0.4-2,0.5c-0.8,0-1.8,0.5-2.3,0.7c-0.9,0.5-1.4,0.3-2.2,0.8
		c-0.6,0.1-1,0.4-1.7,0.6c-0.3,0.1-0.6,0.3-1,0.5c-0.2,0.1-0.4,0.1-0.6,0.1c-0.5,0.2-1.1,0.4-1.6,0.6c-0.6,0.2-1.1,0.5-1.6,0.8
		C47,83.8,46.5,84,46,84.2c-0.4,0.2-0.6,0.5-1.1,0.5c-0.2,0-0.7,0.1-1,0.5c-0.2,0.1-0.8,0-1.2,0.6c0.4-0.1,1.2-0.5,1.5-0.6
		c-0.6,0.5-1.2,0.8-1.6,0.9c-0.6,0.3-0.9,0.6-1.4,0.8c-0.1,0.2-0.9,1-1.4,1c-0.4,0.3-0.9,0.6-1.5,0.8c-0.4,0.3-0.7,0.6-1.3,1
		c-0.6,0.1-0.8,1-1.4,0.9c-0.8,0.5-0.8,0.8-1,0.7c-0.7,0.4-0.8,1-1,0.7c0.2,0.3-0.5,0.5-1.2,0.8c-0.5-0.1-0.8,0.8-0.8,0.6
		c0,0-0.1,0.1-0.1,0.1c0.1,0,0.1,0,0.2,0.2c-0.1,0-0.2,0-0.3,0c0-0.1,0.1-0.1,0.1-0.1c-0.1,0.1-0.1,0.1-0.2,0.1
		c-0.1,0-0.2,0.1-0.2,0.1c-0.3,0.2-0.5,0.3-0.6,0.2c-1.3,0.2-0.4,0.4-0.9,0.8c-0.3,0.2-1.1,0.3-0.9,0.6c0.1,0.1,0.1,0.2,0.2,0.2
		c0.1-0.1,0.3-0.2,0.5-0.4c0.7-0.8,1.1-0.9,1.1-0.9c0.2,0,0.4-0.1,0.5-0.3c0,0.1,0,0.1,0,0.2c0,0-0.1,0.1-0.1,0.1
		c0.1-0.1,0.5-0.3,0.9-0.1c-0.9,0,0.3,0.2-0.5,0.4c0,0,0,0-0.1,0c0.1,0.4,0.1,0.7-0.3,0.3c0.6-0.6-1.3,0.8-1,0.8
		c-0.5,0.6-1.3,0.2-1.2,0.9c-0.3-0.2-0.5-0.2-0.6,0c0-0.1,0.1-0.3,0.1-0.5c0.1-0.1,0.2-0.2,0.3-0.3c-0.2,0.1-0.5,0.2-0.9,0.4
		c-0.5,0-0.7,0.4-1.1,0.9c-0.9,0.2-1,0.8-1.1,0.9c-0.6,0.4-0.5,0.2-1.1,0.8c-0.6,0-1.3,0.9-0.9,0.9c-0.2,0.3-0.2,0.8-0.2,1.1
		c0.2-0.1,0.3-0.7,0.7-1.1c0.3-0.4,0.8-0.8,1.2-0.9c0.2-0.3,0.6-0.6,1.1-0.9c0.8-0.3,0.7-1.1,1.1-0.9c0.2,0.1,0.6,0.3,0.9-0.1
		c-0.1,0.2-0.2,0.5-0.5,0.8c-0.3,0.3-1.2,0.3-1.2,1c-0.4,0.6-0.7,0.9-1.1,1c-0.4,0-0.6,0.6-0.8,0.9c0.2-0.2,0.5-0.4,0.7-0.6
		c0.3,0,0.8-0.5,1-0.8c0,0,0,0.1,0,0.1c0,0.1,0,0.3-0.1,0.4c0-0.1,0.7-0.8,1-1c0.2-0.8,0.8-1.2,1.1-1c0.6-1,0.8-1.2,1.1-0.9
		c0.4-0.1,0.5,0.1,0.3,0.3c-0.2,0-0.3,0.1-0.4,0.2c0.1,0,0.3-0.1,0.4-0.2c-0.1,0.1-0.2,0.2-0.4,0.2c-0.1,0.1-0.3,0.3-0.3,0.5
		c-0.2,0-0.3,0.1-0.4,0.3c-0.4,0.1-0.3,0.8-1,0.8c-0.5,0.2-0.6,0.5-1,1c-0.2,0.3-0.9,0.5-1,0.9c-0.8,0.2-0.2,0.3-0.9,1
		c0,0.2-0.3,0.8-0.7,0.8c0,0.1-0.1,0.3-0.1,0.3c0,0,0,0,0,0c0.3,0,0.1,0.1,0,0.4c-0.4,0.8-0.9,0.9-1.3,1.1c-0.1,0.3-0.1,0.8-0.6,0.9
		c0.3,0.6-0.6,0.9-0.7,1.1c0,0.3-0.2,0.9-0.9,1c0.2,0.2-0.6,1-1.1,1.8c-0.6,0.7,0.9-0.1,0.2,1.1c0.1-0.6-0.9,0.7-0.9,1.2
		c-0.6,0.1-0.2,0-0.4,1c0.4-0.6,0.7-0.6,1-1.5c0.8-0.7,0.4-0.7,0.9-1.2c-0.2-1.2,0.5-0.7,0.5-1.4c0,0,0,0,0,0c0,0,0,0,0,0
		c0,0,0,0,0,0c0.3-0.4,0.2-0.5,0.7-0.8c0.1-0.1,0.2-0.2,0.2-0.4c0.5-0.8,1.3-0.6,0.9-1.1c0.6-0.4,0.7-0.7,0.8-1.2
		c-0.1-0.3,0.8-0.4,1.2-1.1c0.4-0.3,0.3-1.1,1.1-1.1c0.2-0.1,0.3-0.3,0.9-1c0.2-0.3,0.7-0.3,1-1c-0.1,0.1,0.8-0.3,1.1-1
		c0,0.1,0,0.1,0,0.1c0.6-0.3,0.6-0.4,1-0.8c0,0,0.1,0.2-0.1,0.7c-0.7,0.3-0.6,0.5-0.7,0.7c0,0-0.1-0.1-0.1-0.2c0,0.1,0,0.2,0,0.3
		c0,0,0,0-0.1,0c0,0,0,0,0.1,0c-0.1,0.1-0.3,0.2-0.4,0.4c0,0,0,0.1,0,0.1c0,0,0,0-0.1,0c-0.1,0-1,0.6-1,1c-0.3,0.9-0.9,0.7-1.5,1.5
		c-0.5-0.1-1,1-1.3,1.1c-0.3,0.5-1.1,0.3-0.6,0.5c0.3,0.2-1,0.1-0.9,1.1c-0.2,0.1-0.8,1.1-0.8,1.3c-0.3,0.1-0.5,0.8-0.9,1.2
		c0,0-1,0.7-0.9,1.1c0,0.6-0.8,0.6-0.9,1.2c-0.4,0.8-0.6,0.8-0.8,1.1c0.2,0.6-0.7,0.5-0.7,1.3c0.2,0.3-0.6,1.4-0.6,1.2
		c0.1,0.2,0.5-0.1,0.4,0.2c-0.2,0.3-0.8,0.7-0.8,1.5c-1,0.7-0.4,0.6-0.4,1.5c-0.1-0.6,1-0.4,1-0.1c0,0-0.8,1-0.4,1
		c-0.1-0.1,0.1,0.8,0.3,1c0.4-0.4,0.9-0.4,1-1.1c0-0.6-0.1-1.4,0.5-1.6c0.6-0.7,0.1-0.7,0.9-1.4c0.2-0.2,0.7-0.9,1.2-1
		c-0.2-0.7,0.1-0.8,0.5-1.4c0.7-0.4,0.5-0.5,0.9-1.2c0.8-0.2,0.2-1.2,1.1-1.4c0.6-0.9,0.5-1.4,1.3-1.7c0.3,0.1,0.9-1,1.2-1.4
		c0.7-0.9,0.8-1.2,1.3-1.4c0.5,0,0.8,0.1,1-0.2c0.5-0.1,0.5-0.4,0.4-1.1c0.3-0.3,0.6-0.9,1.4-1.3c0.2-0.1-0.3-0.4,0.9-0.8
		c0.3,0.1,0.5-0.4,1-0.9c0.3,0.1,0.8-0.7,1-0.7c0.6-0.4,0.2-0.6,1-0.9c0.6-0.1,0.5-0.6,1.1-0.9c0.1-0.3,0.2-0.4,0.3-0.6
		c-0.2,0.2-0.5,0.4-1,0.8C34.5,100.1,32.7,100,33.2,100.4z M105.3,90.7c0.1,0,0.3,0.2,0.5,0.4c-0.1,0-0.1,0-0.2,0
		c0.1,0.3,0.2,0.4,0.4,0.5c0,0,0,0-0.1,0C105.5,91.4,105.1,91,105.3,90.7z M104.2,90.3c0.7,0.2,0.5,0.4,0.7,0.5
		c-0.5,0-1.1-0.3-1.2-0.6c0,0,0,0-0.1,0C103.9,90.3,104.1,90.3,104.2,90.3z M107.8,85.2c-0.1,0.3-0.3,0.5-0.6,0.4
		c0.3,0.1,0.7,0.3,0.9,0.4c0.6,0.4,0.3,0,0.1-0.3c1,0.9-0.5,0.2-0.9,0.6c0.2,0-0.1-0.5-0.4-0.8c0,0-0.1-0.1-0.1-0.1c0,0,0.1,0,0.1,0
		c-0.2-0.1-0.3-0.3-0.5-0.5C107,84.6,107.1,85.3,107.8,85.2z M91.6,86.2c0.2,0.1,0.4,0.2,0.6,0.3C92,86.4,91.8,86.3,91.6,86.2z
		 M94,85c-0.5-0.1-0.8-0.2-1.3-0.4c0,0-0.1-0.1-0.2-0.1c0.2,0,0.4,0,0.4,0.1C93.4,84.7,93.7,85,94,85C94,84.9,94,85,94,85z
		 M94.3,82.5c0-0.3,0.7-0.3,1-0.1c0,0,0,0,0,0c0.4,0.3,0.9,0.3,1.5,0.6c0.2,0.1,0.6,0.3,1,0.4c-0.5-0.1-1.2-0.2-1.5-0.5
		c-0.5-0.2-1.2-0.4-1.6-0.2C94.7,82.6,94.3,82.6,94.3,82.5z M94.3,81.6c0.1,0,0.5,0.1,0.6,0.2C94.6,81.7,94.5,81.6,94.3,81.6z
		 M99,85.6c-0.7-0.1-1.3-0.4-1.2-0.8c0.1,0.6-1.6-0.3-1.2,0.2c0.2,0.2,0.5,0,0.6,0.1c-0.4,0-1-0.2-1.4-0.4c-0.1-0.2-0.4-0.3-0.6-0.3
		c-0.3,0-0.3-0.3-0.5-0.3c0.1,0,0.4,0,0.5,0c0,0,0,0,0,0c0.5,0,1,0,1.3,0.3c0.4,0.3,0.9,0.3,1.3,0.5c0.4-0.1,0.7,0.1,1.2,0.2
		c0.4,0.1,0.8,0.6,1.2,0.5C100.3,85.4,99.4,85.6,99,85.6z M100.7,84.3c-0.2,0.2,0,0.1-0.4,0.3c-0.4-0.3-1.2-0.7-1.7-0.8
		c-0.6-0.3-0.9-0.1-1.8-0.3c-0.6-0.2-1.3-0.6-2-0.7c0.4-0.1,0.5,0,1.1,0.2c0.5,0.2,0.7,0.5,1.1,0.4c0.6,0.3,1.5,0.4,2.1,0.5
		C99.6,84,100.3,84.2,100.7,84.3z M99.5,83c0.4,0.2,0.8,0.4,1.2,0.3c0.3,0.4,0,0.7-0.4,0.5c-0.5-0.2-0.9-0.3-1.2-0.5
		c-0.5-0.1-0.8-0.2-1.4-0.4c-0.3-0.1-1-0.3-1.4-0.4c-0.5,0-1-0.3-1.4-0.5c0.3,0.1,0.4,0.1,1,0c0.3,0.1,0.1,0,0-0.1
		c0.3,0,0.8,0.3,1.2,0.4c0.5,0.2,0.9,0.2,1.1,0.3C98.6,82.8,99.1,82.9,99.5,83z M96.3,81.5c0,0,0.5,0.1,0.4-0.1
		c-0.1-0.1-0.1-0.2-0.2-0.3c0.3,0.1,0.6,0.2,0.8,0.3c0.3,0.2,0.5,0.3,0.7,0.4c-0.1,0-0.2,0-0.3,0.1c-0.3-0.1-0.9,0-1.5-0.3
		C96.2,81.6,96.2,81.5,96.3,81.5z M96.1,81.4c0,0-0.2,0-0.1,0.1c-0.5,0-0.6-0.2-0.9-0.3C95.6,81.1,95.9,81.3,96.1,81.4z M99.8,82
		c0.1,0,0.1,0.1,0.2,0.1c-0.3-0.1-0.5-0.2-0.6-0.2C99.5,82,99.6,82,99.8,82z M95.4,80.2c0.6,0.2,1,0.2,1.5,0.5
		c0.7,0.1,1.1,0.5,1.5,0.6c0.2,0.1,0.4,0.2,0.5,0.3c-0.1,0-0.2-0.1-0.3-0.1c-0.6-0.2-1.2-0.5-1.5-0.5c-0.8-0.1-0.9-0.4-1.5-0.5
		c-0.4-0.2-1.2-0.3-1.4-0.5c-0.1-0.1-0.1-0.1-0.2-0.1C94.3,79.8,94.9,80.1,95.4,80.2z M93.8,79.8c-0.4-0.1-0.8,0-1.2-0.1
		c0,0,0,0,0,0C93,79.5,93.4,79.6,93.8,79.8z M94.2,80.5c-0.4,0-1-0.2-1.6-0.2c0.1-0.1-0.3-0.1-0.4-0.2c0.1,0,0.1-0.1,0.3,0
		C92.9,80.1,93.4,80.3,94.2,80.5z M92.1,80.1C92.1,80.1,92.1,80.1,92.1,80.1C92.1,80.1,92.1,80.1,92.1,80.1z M92.9,81.6
		c0.4,0.2,0.6,0.3,1.3,0.3c0-0.1,0.2,0.1,0.3,0.2c-0.3,0.1-0.7,0.1-1.2,0c-0.3,0-1-0.3-1.8-0.5C92,81.5,92.3,81.5,92.9,81.6z
		 M90.9,85.7c0.7,0.2,1.4,0.4,1.9,0.6c-0.7-0.1-1.1-0.3-1.5-0.4c-0.5-0.1-1-0.2-1.4-0.3C90.1,85.4,90.8,85.8,90.9,85.7z M89.8,79.5
		c-0.3,0.2-0.7,0-1-0.2C88.9,79.4,90,79.5,89.8,79.5z M89,79.2C89,79.3,88.9,79.2,89,79.2C88.9,79.2,88.9,79.2,89,79.2z M88.7,79.1
		c0,0,0,0,0,0.1c-0.2,0-0.2-0.2-0.3-0.2c0,0,0,0,0,0C88.6,79,88.6,79.1,88.7,79.1z M87.9,79C88,79,87.9,79,87.9,79
		C88.2,79,88.1,79.2,87.9,79C87.8,79.2,87.9,78.8,87.9,79z M82.8,78.6C82.8,78.6,82.9,78.7,82.8,78.6C82.8,78.6,82.8,78.6,82.8,78.6
		z M84.4,78.8c0,0.1-0.4-0.1-0.5-0.1c0.1-0.2-0.6-0.2-0.8-0.1c0.2,0,0.5,0.1,0.5,0.1c-0.3,0.1-0.4,0-0.5-0.1c0,0-0.1,0-0.1,0.1
		c-0.1-0.1-0.1-0.1-0.1-0.1c0,0,0,0,0.1,0c0,0,0,0,0,0c0,0,0.1,0,0.1,0c0,0-0.1-0.1-0.1-0.1c0,0,0,0,0,0
		C83.6,78.6,84.5,78.6,84.4,78.8z M80.6,84.1c-0.1,0,0.4,0,0.3,0c0.2,0,0.4,0,0.6,0.1c0.5,0.2,0.5,0.2,0.7,0.3c-0.4,0-0.7,0-1.1,0
		l0-0.1c-0.1,0-0.1,0-0.1,0.1h-0.1C80.7,84.4,80.5,84.1,80.6,84.1z M79.8,84c0.1,0,0,0,0.1,0.1c-0.1,0-0.2,0.1-0.4,0.1
		c-0.1,0-0.2-0.1-0.2-0.2C79.2,84.1,79.7,83.9,79.8,84z M26.2,99.2C26.2,99.2,26.2,99.1,26.2,99.2c0.1-0.1,0.2-0.2,0.4-0.3
		C26.4,99,26.2,99.1,26.2,99.2z M28.7,100.6C28.8,100.7,28.8,100.7,28.7,100.6L28.7,100.6z M30.6,96.2c0,0,0,0.1,0,0.1
		c-0.3,0.2-0.5,0.5-0.8,0.7c0,0-0.1,0-0.1,0C29.9,96.8,30.2,96.5,30.6,96.2z M28.8,98.2c0,0.1-0.1,0.1-0.1,0.2c0,0,0-0.1,0-0.1
		C28.7,98.2,28.7,98.2,28.8,98.2z M27.9,99C27.9,99,27.9,99,27.9,99c-0.2,0.2-0.5,0.7-0.9,0.9c0,0,0,0,0,0c0,0,0-0.1,0-0.2
		C27.6,99.1,27.9,98.9,27.9,99z M23.9,103.2c0.1-0.1,0.2-0.1,0.3-0.2C24.1,103.1,24,103.1,23.9,103.2z M26.3,100.8
		C26.3,100.8,26.3,100.7,26.3,100.8c-0.4,0.2-0.5,1.3-1.1,1.1c-0.1,0.1-0.3,0.3-0.3,0.4c0-0.1,0-0.1,0-0.2c-0.1-0.3,0.2-0.5,0.5-0.8
		c0,0,0,0,0,0C25.7,101.1,26,100.9,26.3,100.8c-0.1,0-0.1,0-0.1-0.1c-0.1,0-0.2-0.1-0.2-0.1c0,0,0.1,0,0.2-0.1
		c0.2-0.1,0.4-0.2,0.6-0.3c0,0-0.1,0.1-0.1,0.1c0,0,0,0,0,0C26.4,100.6,26.3,100.7,26.3,100.8z M26.7,100.4c0.2-0.1,0.4-0.2,0.5-0.3
		c0,0.1,0,0.1,0,0.2C27.4,100.7,27,100.5,26.7,100.4z M27.6,99.8c0-0.1,0.1-0.1,0.1-0.3C27.8,99.7,27.7,99.8,27.6,99.8z M29.3,97.6
		c-0.1-0.2,0.1-0.3,0.4-0.5c-0.1,0.1-0.2,0.2-0.2,0.3C29.4,97.5,29.4,97.6,29.3,97.6z M30.2,97.1c-0.1-0.1-0.3-0.1-0.4-0.1
		c0.2-0.1,0.4-0.2,0.5-0.3C30.3,96.9,30.4,97.5,30.2,97.1z"/>

    <path fill="#2A6797" d="M37.9,106.7c0.2-0.3,0.5-0.5,0.8-0.6c0.1-0.1,0.2-0.2,0.3-0.3c0.4-0.6,0.8-1,1.5-1.2c0.2-1,1-1.2,1.5-1.3
		c0.1-0.2,0.4-0.4,0.7-0.6c-0.2-0.5,0.3-0.7,0.8-0.5c0,0,0,0,0,0c0,0,0-0.1-0.1-0.1c0.1,0,0.2,0.1,0.2-0.2c0.1-0.1,0.2-0.2,0.3-0.3
		c0.2-0.2,0.3-0.2,0.5-0.3c0.5-0.3,1.1-0.7,1.5-1c0.1,0,0.2,0,0.3-0.1c0.2-0.1,0.4-0.3,0.6-0.4c0.2-0.1,0.4-0.2,0.5-0.3
		c0.3-0.3,0.6-0.5,0.9-0.8c0.1,0,0.2,0,0.3-0.1c0.2-0.1,0.3-0.2,0.3-0.2l0.3-0.2c1.1-0.5,2.1-1,3.2-1.5c4.2-2,8.7-3.6,13.3-4.5
		c0.7,0.6,1.2,0.4,1.8,0.5c-1.6,0.5-3.3,0.6-5,1.1c2.4-0.5,4.7-1,7.1-1.3c2.3-0.1,4.5-0.2,6.4-0.2l-0.1-0.1c0.2-0.7,0.1,0.1,0.5-0.1
		c0-0.5,2.7,0.9,2.3-0.3c-1.6,0.1-4.6,0-7.2,0l0.1-0.1c1.4,0,2.5-0.2,3.8-0.2l0.1,0.1l0.1-0.1c0.5,0,1.1,0,1.8,0l0.7,0.1
		c-0.3,0-0.5,0.1-0.1,0.1c0.1,0,0.2,0,0.4,0c0.7,0.1,1.4,0.3,1.9,0.8c-0.4-0.5,1.2,0.5,1-0.2c0.7,0.4,1.3,0.6,1.5,0.4
		c0.3,0,0.7,0.1,0.1-0.3c0.5,0.1,0.9,0.1,1.3,0.2c0.4,0.1,0.8,0.2,1.1,0.3c0.3-0.3,0.7,0.2,1.1,0.2c0.4,0.2,0.8,0.3,1.7,0.4
		c-0.4-0.5-0.7-0.5-1.2-0.6c-0.5,0-0.8-0.1-1.2-0.2c-0.4,0.1-0.8,0-1.1-0.2c-0.4-0.2-0.7-0.4-0.9-0.6c0.3,0.1,0.8,0.2,1.3,0.3
		c0.5,0.1,1.1,0.3,1.6,0.3c0.5,0,0.8,0.2,1.1,0.3c-0.2-0.1-0.4-0.2-0.4-0.4c-0.6,0.2-0.8-0.1-1.7-0.4c0.7,0.3,1.4,0,2,0.3
		c-0.2-0.2-0.5-0.1-1.1-0.4c0,0,0.1,0,0.1,0c-0.1,0-0.1-0.2-0.2-0.2c0.4,0,1.2,0.3,1.2,0.2c0.1,0.1,0.4-0.3,0.9,0
		c-0.3-0.1-0.6-0.1-0.7,0.2c0.8-0.5,1.1,0.9,1.3,0.2c0-0.1,1,0,1.3,0.2c0.9-0.2,0.9-0.1,1.4,0.2c0.3,0.2,0.7,0.5,1.2,0.6
		c0.4,0,0.7,0.2,1.2,0.4c0.5,0.1,1,0.5,1.4,0.5c0,0.1,0.1,0.4,0.7,0.4c-0.2,0.4-0.6-0.4-1.2-0.3c-0.1-0.3-0.8-0.3-1.1-0.4
		c-0.5-0.1-0.7,0.1-1.2-0.4c-0.4-0.1-0.6-0.4-1-0.2c-0.7-0.3-1.5-0.5-2-0.2c0.5-0.1,0.7-0.2,1,0c0.4,0.3,0.5,0.2,1,0.5
		c0.9,0.2,0.8,0.7,0.5,0.5c-0.1,0.4,0,0.4,0.9,0.4c0,0,0.1,0,0.1,0c-0.1,0-0.2,0-0.3,0.1c0.4,0.8,0.8,0.5,1.2,0.8
		c0.8,0.3,0.8-0.1,1.1,0.6c0.2,0.2-0.1-0.6,0.3-0.6c0.5,0,1.4,0.4,1.9,0.5c0,0,0,0,0.1-0.1c-0.1-0.1-0.1-0.2,0,0
		c0.1-0.1,0.4-0.2,0.7-0.1c-0.2-0.1-0.7-0.6-1.1-0.5c0-0.1-0.1-0.2-0.1-0.3c0,0-0.1-0.1-0.2-0.2c0.1,0,0.1,0.1,0.2,0.1
		c-0.1-0.1-0.1-0.1-0.5-0.4c0.5,0,1.1,0.4,1.2,0.3c0.1,0,0.3,0.1,0.1,0.2c0.1,0.1,0.2,0.1,0.3,0.3c0.2,0,0.3-0.1,0.5-0.2
		c-0.3-0.1-0.5-0.3-0.7-0.3c-0.2-0.6-0.8-0.4-1.3-0.5c0.3,0.1-0.6,0.2,0-0.2c-0.6,0.2-1.5-0.5-1.6-0.4c-0.2,0.2-0.6-0.2-0.9-0.4
		c-0.2-0.3-0.9-0.2-1.2-0.4c-0.5,0.2-0.8,0.1-0.9-0.3c-0.3-0.5-0.3-0.7-1.1-0.5c-0.8,0-0.7-0.4-1.3-0.4c-0.2-0.1-0.4-0.3-0.5-0.5
		c0.4,0.2,1.1,0.4,1.3,0.3c0.6,0.2,1.2,0.3,1.3,0.2c0.1,0.3,1.2,0.2,1.4,0.3c-0.3-0.4-0.8-0.4-1.1-0.5c-0.2-0.1-0.9-0.1-1.3-0.3
		c0,0,0,0,0,0c-0.3-0.2-0.7-0.4-1.3-0.5c-0.7-0.5-0.8-0.4-1.3-0.5c0.1-0.2,0.3-0.2,0.4-0.2c0,0-0.1,0-0.1,0c0.2,0.1,0.3,0.1,0.4,0
		c0.2,0.1,0.4,0.2,0.4,0.3c0.2,0,0.1,0.1,0.1,0.2c0.3,0,0.5-0.1,0.8-0.2c-0.2-0.2-0.4-0.5-0.5-0.7c0.5,0.7-0.3,0.3-0.8,0.3
		c-0.5-0.2-0.9,0-1-0.1c0-0.1-0.2-0.4-0.6-0.2c0,0-0.2-0.2-0.3-0.3c0,0,0.1,0,0.1,0c0,0,0-0.1,0.1,0c0.1,0,0.1,0,0.1,0.1
		c0.4,0,0.8-0.3,1.2,0.1c0.2-0.1,0.7,0.2,1.2,0.3c0.3-0.5,0.7-0.1,1.1,0c0.5,0,0.8,0.3,1.1,0.3c-0.2,0.2-0.3,0.3-0.9,0.3
		c0.1,0,0.1,0.1,0.1,0.1c0.4,0,0.9,0,1.1,0.1c-0.1-0.1-0.1-0.1-0.2-0.2c0.3,0,0.6,0.3,1.3,0.1c0.4,0,0.9,0.1,1.3,0.2
		c0.5,0.5,1,0.3,1.3,0.5c0.3,0.3,1,0.3,1.2,0.4c0.2,0.2,1,0.2,1.3,0.4c0.2,0,0.5,0,0.8,0.1c-0.2-0.1-0.5-0.3-0.7-0.7
		c0.1-0.3,1.3-0.3,1.2-0.4c-0.4-0.4-0.9-0.1-1.9-0.5c0.1,0,0.1,0,0.2,0c-0.3-0.1-0.6-0.2-0.6-0.2c-0.3,0-0.3,0-1-0.5
		c-0.9-0.4-1.5-0.1-2.1-0.4c0.2-0.3,0.3-0.1-0.3-0.7c0.6,0.1,1.3,0.5,1.6,0.3c0.1,0,0.2,0.1,0.2,0.1c-0.3,0-0.7,0-1.2,0
		c0.5,0.5,1.9,0,2,0.6c0.3,0.2,1.2,0.2,1.9,0.8c0.4-0.1,0.6-0.2,0.6-0.3c0.5,0.4,1-0.7,1.4,0.2c0.2-0.2-0.6-0.4,0-0.6
		c0,0.3,0.9,0,0.2-0.1c-0.3-0.5-1.3-0.6-1.8-0.9c0,0-0.1,0-0.1-0.1c0,0,0,0,0,0c-0.3,0.5-0.7,0.3-1.3,0c0.2-0.2,0.5-0.3,0.7-0.3
		c-0.4-0.1-0.8-0.3-0.6-0.9c0,0-0.1,0-0.1,0c-0.3-0.1-0.6-0.1-0.9-0.1c-0.3,0-0.6,0-0.8,0.1c0,0,0,0-0.1,0c-0.1,0-0.1,0.1-0.1,0.1
		c0.1,0,0.2,0,0.3,0c0.4,0,0.8,0.1,1.1,0.2c0,0,0,0,0,0c0,0,0,0,0,0c-0.1,0-0.3,0-0.4,0.1c0,0,0,0,0,0c-0.3,0.1-0.8,0.2-1.1-0.1
		c-0.4,0.1-0.7-0.1-1.2-0.3c0-0.1-0.8-0.2-1.3-0.2c-0.4-0.2-0.8-0.1-1.2-0.2c-0.4,0.1-1-0.2-1.7-0.1c-0.1-0.7,0.8,0.3,0.8-0.3
		c0.3,0,0.5,0.1,0.8,0.1c0,0,0.1,0,0.1,0c0.4,0.1,0.8,0.2,1.2,0.2c-0.3-0.1-0.8-0.3-1.2-0.3c0,0-0.1,0-0.1,0
		c-0.3-0.1-0.5-0.1-0.8-0.2c-0.2-0.1-0.4-0.1-0.7-0.2c-0.2,0-0.3-0.1-0.5-0.1c-0.2-0.1-0.5-0.1-0.7-0.2c-0.1,0-0.2-0.1-0.3-0.1
		c-0.1,0-0.2,0-0.2-0.1c-0.3-0.1-0.6-0.2-1-0.2c-0.1,0-0.2,0-0.3-0.1c-0.7-0.1-1.3-0.3-2-0.4c-0.2,0-0.3-0.1-0.5-0.1l0,0
		c0.1,0,0.1,0,0.2,0c0.7,0,1.5,0.1,2.3,0.2c0.3,0.1,0.6,0.1,0.8,0.2c0.1,0,0.1,0,0.2,0c0.3,0.1,0.7,0.2,1,0.3c0.1,0,0.3,0.1,0.4,0.1
		c0,0,0.1,0,0.1,0c0.1,0,0.2,0,0.2,0.1c0,0,0,0,0.1,0c0.6,0.2,1.1,0.4,1.7,0.5c0,0,0,0,0,0c0.7,0.3,1,0.2,1.6,0.4
		c0.2,0,0.5,0,0.7,0.1c0.1,0,0.2,0,0.3,0.1c0.2,0,0.5,0.1,0.7,0.1c0,0-0.1-0.1-0.1-0.1C94,87.2,93.5,87,93,87
		c-0.5,0.1-0.9,0-1.4-0.2c-0.3-0.1-0.6-0.2-1-0.4c-0.4-0.2-0.7-0.4-1.1-0.7c0.1,0.4-0.4,0.3-1,0.1c-0.6-0.2-1.3-0.4-1.8-0.3
		c0,0-0.1,0-0.1,0c0,0,0,0,0-0.1c0-0.5,1,0.1,0.8-0.3c0,0,0,0,0,0c-0.1,0-0.1,0-0.2,0c-0.7,0-1.4-0.1-2.2-0.1c-0.3,0-0.6-0.1-1-0.1
		c-0.4,0-0.8-0.1-1.1-0.1c0,0-0.1,0-0.1,0c-0.3,0-0.6-0.1-0.8-0.1c-0.6-0.1-1.2-0.1-1.8-0.2c-0.2,0-0.4,0-0.6-0.1c0,0,0,0,0,0
		c-1.1-0.1-2-0.3-2.9-0.3c0,0.3,0.1,0.2-0.2,0.4c-0.1-0.6-1.5-0.7-0.8-0.5c-0.1,0.4-0.4,0.3-1,0.4c-0.6,0-1.1,0.1-1.9,0.1
		c0,0,0,0,0,0c-0.3,0.1-0.7,0.1-1.2,0.1c-0.5,0.1-0.7,0.1-1.2,0.1c-0.4,0-0.7,0.1-1.2,0.1c-0.3,0-0.7,0.1-1.2,0.1
		c-0.4,0-0.9,0.1-1.3,0.1c-0.4,0-0.8,0.1-1.2,0.1c0.4-0.1,0.7-0.1,1.2-0.2c0.3,0,0.8-0.1,1.2-0.2c0.4-0.1,0.7,0,1.2-0.1
		c0.4-0.2,0.9-0.1,1.2-0.1c0.4,0.2,0.8,0,1.2-0.1c0.4-0.1,0.8-0.1,1.2-0.2c-0.4-0.1-0.7-0.4-1-0.2c-0.3,0-0.8-0.1-1.1-0.5
		c-0.6,0-1.2,0.2-1.8,0.3c-0.6,0.1-1.1,0.1-1.6,0.2c-0.5,0.2-1,0.3-1.6,0.4c-0.5,0-1.1,0.1-1.8,0.3c-1,0.3-2.2,0.3-3.3,0.8
		c-0.9,0.1-2,0.6-3.3,1c-0.9,0.3-2.2,0.7-3.2,1.2c-1,0.5-2.1,0.8-3.1,1.3c-1.2,0.6-2.4,1.1-3.7,1.8c-0.4,0.3-1,0.6-1.6,1
		c-0.7,0.4-1.2,0.7-1.9,1c-0.8,0.6-1.3,0.9-1.8,1c-0.4,0.4-0.9,0.5-1.6,1.2c-0.5-0.3-0.9,0-1.3,0.3c-0.5,0.1-0.3,0.7-0.4,0.9
		c-1.1,0.4-0.9,0.5-1.6,1.2c-0.4,0.4-1.2,0.8-1.6,1.2c-0.6,0-0.9,0.3-1,0.4C34,99,34,99.3,33.8,99.7c-0.7,0.2-1.4,0.8-1.5,1.3
		c-0.4,0.1-0.7,0.7-1,1.1c0.2-0.3,0.6-0.5,0.8-0.7c0-0.3,1.1-0.9,1.1-0.9c-0.5-0.4,1.3-0.4,1-0.9c0.5-0.4,0.8-0.6,1-0.8
		c0,0,0.1-0.1,0.1-0.1c0,0,0.1-0.1,0.1-0.2c0.3-0.4,0.5-0.9,0.9-0.6c0.6-0.1,0.6-0.2,1.1-0.6c0.4,0.2,0.5-0.5,1.1-0.6
		c-0.2-0.5-0.6,1.1-1.1,0.1c0,0,0.2-0.3,1.2-0.5c0.5-0.2,0.5-0.7,1.3-0.9c0.3,0,0.8-0.4,1.4-1c0.5-0.9,1,0,1.4-0.8
		c0.4,0.3,0.1-0.5,1.1-0.6c0.2-0.1,0.4-0.2,1-0.6c0,0.7,0-0.3,0.9-0.6c0.3-0.2,1.5-0.6,1.9-0.8c0.9-0.6,2.1-1,3.1-1.5
		c1.1-0.5,2.1-0.9,3.1-1.3c0.9-0.5,1.6-0.7,2.5-0.9c0.5-0.3,2.3-0.5,3.5-1c1-0.4,2.1-0.3,0.8-0.1c-0.9,0.5-1.8,0.6-2.7,0.8
		c-0.8,0.3-1.6,0.6-2.6,0.9c-0.1,0-0.1,0-0.1,0c-0.7,0.2-1,0.4-1.5,0.6c-0.2,0.1-0.4,0.2-0.6,0.3c-0.2,0.1-0.4,0.2-0.6,0.2
		c-0.1,0-0.2,0.1-0.3,0.1c-0.1,0-0.2,0.1-0.3,0.2c-0.2,0.1-0.4,0.2-0.6,0.3c-0.7,0.3-1.3,0.6-2,0.9c-1.1,0.4-1.7,0.7-2.8,1.5
		c-0.1,0.1-0.2,0.1-0.3,0.2c0,0,0,0,0,0c-0.1,0.1-0.2,0.2-0.4,0.2c-0.2,0.2-0.4,0.3-0.6,0.4c-0.1,0.1-0.1,0.1-0.2,0.2
		c-0.3,0.3-0.6,0.4-1.2,0.5c-0.2-0.1-1.6,0.9-1.9,1c-0.3,0.8-0.5,0.5-0.8,1c-0.6,0.2-0.6,0.2-1,0.3c0,0.1,0,0.1,0,0.2
		c0,0.4-1.2,0.6-1.2,0.9c-0.1,0.1-0.1,0.1-0.1,0.2c-0.2,0.4-0.2,0.8-1,0.8c0,0,0,0,0,0c0,0-0.1,0-0.1,0c-1,0-0.5,0.4-1.1,0.9
		c-0.6,0.1-0.6,1.4-1.1,1c-0.8,0.6-0.7,1.6-1.2,1c-0.4,0.8-0.1,0.8-0.9,0.7c-0.3-0.1-0.7,0.7-0.8,0.7c-0.6,0.7-0.1,0.6-1,0.7
		c-0.7,0.6-0.5,0.8-0.7,0.8c-1.2,0.2-0.9,0.6-0.9,0.7c-0.8-0.6-0.6,0.7-0.8,0.8c-0.1,0.2-0.2,0.3-0.2,0.4c0.2-0.2,0.4-0.3,0.7-0.5
		c0.2-0.1,0.6-0.1,0.9-0.5c0.2,0,0.4,0,0.7,0c-0.2,0-0.2,0.6-0.4,0.4c0.1-0.4,0.2-0.3-0.2-0.2c-0.5,0.2,0.1,0.5-0.1,0.5
		c-0.2,0.5-0.7,0.6-0.8,0.9c0,0.2-0.9,0.9-1,1c-0.2,0.2,0,0.9-1,1c-0.1,0.4,0.1,0.3-0.8,1c-0.1,0.1-0.1,0.2-0.2,0.3
		c0.4-0.2,0.6-0.6,0.7-0.7c-0.3,0.5,0.2,1-0.9,1.1c0,0.1-0.1,0.2-0.1,0.3c0.1-0.1,0.3-0.2,0.4-0.3c0.2,0,0.3,0,0.4-0.1
		c-0.1,0.2,0,0.3-0.4,0.6c-0.2-0.2-0.6,0.7-0.9,1.1c0,0.2,0,0.4-0.1,0.5c0-0.1,0.1-0.1,0.1-0.2c0.3,0,0.4-0.2,0.5-0.4
		c0.1-0.1,0.2-0.2,0.3-0.3c-0.1,0-0.1,0-0.2,0c0,0,0,0,0,0c0.1-0.2,0.1-0.5,0.3-0.5c0.3-0.4,1-1,1-1.1c0.1,0.2,0.2,0.2,0.2,0.2
		c-0.3,0.2-0.7,0.4-0.7,0.4c0,0.3-0.1,0.5-0.3,0.7c0.3-0.2,0.6-0.7,0.7-0.8c0,0.1,0,0.2-0.4,0.8c-0.3,0-0.5,1.2-0.5,0.3
		c-0.1,0.1-0.1,0.1-0.2,0.1c0,0.6-0.5,1-0.9,1.2c0.1,0.4-0.1,0.3-0.8,1c0.2-0.2,0.4-0.6,0.5-0.8c0-0.1,0-0.1,0-0.2
		c-0.1,0-0.2,0-0.4,0c-0.1,0.7-0.3,0.6-0.5,0.7c-0.1,0.3-1.2,0.4-1.1,1.6c0,0,0,0.1,0,0.1c0.1,0.2,0.5-1.6,1.2-1.5
		c0.1,0.2,0.3,0.3,0.3,0.3c0,0,0,0.2,0,0.2c0,0,0,0.2,0,0.2s-0.2,0-0.2,0c0,0-0.1-0.2-0.1-0.1c-0.4,0.7-0.3,0.9-0.7,0.9
		c-0.4,0.3-0.2,0.2-0.8,0.9c0.3,0.9-0.7,0.3-0.6,1c-0.6,0.8-0.4,0.8-0.7,1c-0.5,1.1-0.6,1.7-0.8,1.7c-0.5,0.1,0.6,0.5,0.4,1
		c0,0.1,0.1,0.2,0.1,0.3c0,0.1-0.1,0.2-0.1,0.3c-0.1,0.1-0.3,0.2-0.6,0.6c0,1.1-0.8,1.1-0.2,1c0.5-0.9,0.5-1.5,0.7-1.3
		c0,0,0.1-0.1,0.1-0.1c-0.1,0.1-0.1,0.3-0.1,0.3c-0.2,0.5,0.1,1.7-0.7,1.5c-0.5,0.2,0.3,1.2-0.3,1.5c0.2,0.1,0.3,0.3,0.2,0.3
		c-0.1-0.2-0.6,1.4-0.6,1.5c0.3,0.3,0.1,0.7-0.1,1c0.2-0.3,0.9,0.1,1,0.2c0.2,0.7-0.1,0.5,0.1,1.8c0.1-0.2,0.9-0.9,0.6-1.1
		c0.4-0.5,0.7-1.2,0.5-1.4c-0.2-0.5,0.1-0.3,0.6-1.3c0.4-0.3,0-0.4,1.1-1.1c0.1-0.7,0.2-0.7,0.3-1.3c0.7-0.8,0.4-1.2,0.7-1.2
		c-0.1-1,0.6-1.9,0.9-1.5c-0.1-0.8,0.5-0.8,0.9-1.4c0.1-0.5,0.7-0.9,1-1.5c0.5-0.2,1-0.9,1-1.3c0-1.2,0.4-1.5,1.1-1.3
		c0.7,0.2,0.9-0.6,1.1-1.3c-0.1-0.8,0.8-0.3,1.1-1.3c0.4-0.7,0.7-1.5,1.2-1.2c-0.2-0.7,1.1-0.9,1.2-1.2c0.5-0.1,0.9-0.6,1.2-1.2
		c0.3-1.1,1.5-0.7,1.4-0.7c0.3-0.2,0.3-0.3,0.6-0.6c0,0,0,0,0.1-0.1C37.6,107,37.8,106.9,37.9,106.7z M86.2,91.9
		C86.2,91.9,86.1,91.9,86.2,91.9C86.3,91.8,86.2,91.9,86.2,91.9z M93.3,94.7c0.3,0,0.5,0,0.6,0.4C93.6,95,93.5,94.8,93.3,94.7z
		 M88.5,90.2c0,0-0.1,0-0.1-0.1C88.5,90.1,88.5,90.1,88.5,90.2z M44.7,92.4c0.1,0,0.1-0.1,0.2-0.1C44.8,92.3,44.7,92.5,44.7,92.4z
		 M72.7,91.6L72.7,91.6L72.7,91.6L72.7,91.6z M72.6,91.4c-0.1,0-0.3,0-0.2-0.2l0.4-0.1c0,0,0.1,0.1,0.1,0.1
		C72.9,91.4,72.8,91.4,72.6,91.4z M74.1,91.4L74.1,91.4C74.1,91.4,74,91.4,74.1,91.4l-0.2,0c-0.1,0-0.2-0.2-0.2-0.3l0.2,0h0.5
		c0.5,0.2,0.4,0.1,0.6,0.2C74.7,91.4,74.4,91.4,74.1,91.4z M75.2,85.5c0.1,0-0.2,0-0.1,0c0,0,0.3-0.1,0.5-0.1
		c-0.2-0.1-0.3-0.1-0.6-0.1c-0.1-0.1,0,0,0.1,0c0.5,0.1,1.5-0.3,1.3,0.1c0,0-0.4,0-0.5,0C76,85.5,75.2,85.6,75.2,85.5z M85.6,87
		c0.1,0,0.2,0,0.4,0.1C85.8,87.1,85.7,87.1,85.6,87z M85.9,87.5C85.9,87.5,85.9,87.5,85.9,87.5C85.9,87.5,85.9,87.5,85.9,87.5z
		 M79.7,85.2L79.7,85.2L79.7,85.2L79.7,85.2z M80.1,85.2c0.2,0,0.3,0.1,0.5,0.1c-0.1,0-0.2,0-0.3,0C80.2,85.4,80.2,85.3,80.1,85.2
		L80.1,85.2z M81.4,85.5c-0.3,0-0.7,0.1-0.9,0L81.4,85.5z M84.3,87.3c0.4,0,0.9,0,1.2,0.1c0,0,0,0,0.1,0c-0.2,0.1-0.4,0.2-0.8,0.2
		c-0.5,0-1-0.2-1.6-0.3C83.5,87.3,83.9,87.3,84.3,87.3z M80.8,92.1c0.2,0,0.2,0.2,0.4,0.2c0,0,0,0,0,0
		C80.8,92.5,80.7,92.3,80.8,92.1z M81.3,92.3C81.3,92.3,81.3,92.3,81.3,92.3C81.3,92.3,81.3,92.3,81.3,92.3
		C81.3,92.3,81.3,92.3,81.3,92.3z M80.7,91.5c-0.5,0-1.1,0-1.7,0c-0.8-0.1-1.7-0.1-2.6-0.2l-0.4,0l0.1,0l-0.4,0l0-0.2l0.5,0l0.2-0.1
		l0.2,0c0.8,0.1,1.6,0.1,2.4,0.1c0.7,0,1.4,0,2.1,0c0.1,0,1.3,0.2,1.2,0.2C81.6,91.5,81.3,91.5,80.7,91.5z M82,91.6
		c0.1-0.1,0.4,0,0.6,0C82.3,91.5,82.1,91.5,82,91.6z M83.3,91.7c-0.2,0-0.4,0-0.7-0.1c0.2,0,0.4,0.1,0.4-0.1
		c0.5,0.1,1.4,0.3,1.7,0.4C84.3,92,84.2,91.9,83.3,91.7z M85.7,90.5c-0.3-0.2-0.7-0.2-1.2-0.2c-0.1,0.2-0.5,0-0.3-0.1
		c-0.1-0.1,0.6,0.2,0.5,0C84.9,90.2,85.5,90.5,85.7,90.5C85.7,90.4,85.7,90.4,85.7,90.5C85.7,90.5,85.7,90.5,85.7,90.5z M91.2,89.2
		c-0.1-0.7-0.5-0.3-1.6-0.6c-0.5-0.2-1.1-0.2-1.7-0.1c0-0.1-2.1-0.4-1.9-0.4c0,0,0,0,0,0c0,0,0,0,0,0c0,0.1-0.8-0.1-0.4-0.1
		c-0.2,0,0.9-0.4,1-0.2c0.1,0,0.2,0-0.1-0.1c0.6,0.1,0.8,0,1.4,0.4c0.1,0,0.2,0.1,0.3,0.2c-0.2,0-0.4-0.1-0.8-0.2
		c-0.2,0-0.4,0-0.5,0c0.3,0.1,0.6,0.2,1.1,0.3c0,0.1,1.7,0.2,1.9,0.2c1.1,0.1,0.9,0,1.5,0.3C91.4,88.9,91.3,89,91.2,89.2z M93.7,88
		c0.4,0.1,0.9,0.4,1,0.4c0.4,0.1,0.6,0.3,1.2,0.5c0.4,0.2,0.7,0.3,1.2,0.5c0.4,0,1,0.1,1.2,0.3c0.2-0.1,0.1-0.2,0.1-0.3
		c0.9,0.7,0.4,0.4-0.8,0.7c0-0.6-0.7-0.5-1.5-1.1c-0.5-0.4-0.9-0.2-1.5-0.4c-0.3-0.1-0.7,0.3-1.1-0.1c0-0.3-0.1-0.4-0.3-0.4
		C93.4,88,93.5,88,93.7,88z M92.9,88c-0.5,0-1,0.2-1.1-0.4C92.1,87.8,92.5,88,92.9,88z M93.1,88.8c0.1,0,0.1,0,0.2,0
		c0,0.8-0.5,0.4-0.5,0.6c-0.4,0.2-0.8-0.1-0.9-0.5c-0.1-0.1-0.1-0.1,0-0.2c-0.1,0-0.2-0.1-0.3-0.2c0.1-0.1,0.2-0.2,0-0.5
		C92.1,88.5,92.6,88.8,93.1,88.8z M89.3,87.6c0.3,0.1,0.8,0.3,1.2,0.3c0.4,0.3,0.4,0,1,0.1c-0.1,0.2,0.1,0.1-0.3,0.5
		c-0.4-0.3-0.8-0.2-1.4-0.3c-0.3-0.1-0.8-0.1-1-0.3c-0.5,0-0.9,0-1.3-0.1c-0.4-0.1-0.8-0.2-1.3-0.4c0.2-0.2,0.8-0.1,0.9-0.1
		c-0.3,0,0.1,0.2,0-0.1C87.8,87.3,88.8,87.6,89.3,87.6z M88.3,86.5c0.5,0,1.3,0.1,1.5,0.3c-0.4,0-0.4,0.3-1.1,0.1
		C88.4,87,88,87,87.3,86.9c-0.1,0,0.1-0.2,0-0.2c0.2,0,0.2-0.1,0.4-0.1c-0.3-0.1-0.6-0.2-1-0.3C87.3,86.3,87.7,86.4,88.3,86.5z
		 M87.2,86.7c0,0-0.1,0.1-0.1,0.1c-0.2,0-0.5-0.1-0.8-0.2C86.6,86.5,86.9,86.7,87.2,86.7z M85.4,86c-0.5,0-1,0-1.5,0
		c-0.2,0-0.3-0.1-0.5-0.2c0.2,0,0.3,0,0.4,0C84.4,85.9,84.9,85.9,85.4,86z M30.2,104.6C30,104.6,30,104.6,30.2,104.6
		C30.3,104.6,30.3,104.6,30.2,104.6z M27.7,108.9c0-0.1,0.1-0.3,0.1-0.4c0.6-0.1,0.9-0.4,1-0.7c0,0,0,0,0,0c0.4-0.5,0.4-0.8,1.2-1.2
		c0,0.1,0,0.1,0,0.1c-0.7,0.6-0.6,0.4-0.8,0.9c0-0.2,0.2,0.6-0.9,0.9C28.1,108.8,27.9,108.7,27.7,108.9z M29,108.3
		c0.3,0.6,0,0.7-0.4,0.8c0.1-0.2,0.2-0.5,0.3-0.8C28.9,108.3,29,108.3,29,108.3C29,108.3,29,108.3,29,108.3z M21.6,120.8
		C21.6,120.7,21.6,120.7,21.6,120.8C21.6,120.7,21.6,120.8,21.6,120.8z M28.7,110.9c0,0.4-0.3,0.3-0.4,0.3c0-0.8-0.1,0.2,0,0.1
		c-0.8,0.9,0.3,0.3-0.6,0.8c0.1,0.4-0.5,0.2-0.6,0.6c-0.5,0.1-0.5,0.5-0.7,1c-0.3,0.3-1,0.7-1.2,1c-0.2,0.6-0.4,0.6-0.3,0.6
		c0,1-0.4,0.8-0.6,1.6c-0.8,0.4-0.9,1.5-1.1,1.5c-0.3,0.3-0.9,1-1,1.4c0,0,0,0,0,0c0,0,0,0-0.1,0c0.6-0.8-0.1-0.8,0.7-1.2
		c0.1-0.1,0.1-0.2,0.2-0.3c-0.3,0.3-0.6,0.4-0.5,0.1c0.4-0.3,1-1.3,0.9-1.6c0.5-0.7,0.4-0.6,1-1.4c0.5-0.5,0.6-1.2,1-1.6
		c0.5-0.5,0.4-0.5,1.1-1.2c0.1-0.6,0.2-0.7,1-1.4c-0.3-0.4,0-0.1,1.3-1.3c0,0,0,0,0,0c0.3-0.6,0.4-1.6,0.8-0.8
		c-0.2,0.9-0.2,0.8,0,0.7C29.5,110.3,29,110.8,28.7,110.9z M29.9,107.4c-0.2,0.3-0.3,0.4-0.4,0.5c0.2-0.2,0.3-0.5,0.5-0.9
		C30.4,107.6,30.4,107.7,29.9,107.4z"/>

   <path fill="#C44C82" d="M85.7,101.4c-0.5,0.1-0.7-0.6-1-0.1c0.4,0.7,0.5,0.2,1,0.6c0.3,0.2,0.2,0.2,0.9,0.4c0-0.5,0.1-0.6,0.2-0.6
		c0.7,0.8,0.6,0.2,1.6,0.2c0,0,0.1,0.1,0.2,0.1c-0.4-0.4,0.8,0.5,0.4-0.4c-0.1-0.2-0.2-0.4-0.3-0.5c0.5,0,1-0.2,1.1-0.4
		c-0.4,0.1-1.4,0.1-1.1-0.1c-0.3-0.3,0.2-0.3-1-0.3c0,0,0,0,0-0.1c0-0.1,0-0.2,0-0.1c-0.7,0.6-0.9-0.3-1.3-0.1c-0.2,0-1-0.5-1.3-0.4
		c-0.6-0.1-1.1-0.1-1.3-0.3c-0.5-0.1-0.9-0.4-1.3-0.4c-0.4-0.2-0.9-0.3-1.3-0.6c0.4,0.1,0.6,0.1,1.3,0.3c0.2,0,0.4,0.1,0.6,0.1
		c0,0-0.1,0.1-0.1,0.1c1.1,0.1,1.2,0.4,2,0.3c0.3,0.4,1.1,0.5,1.7,0.5c0-0.1,0-0.2,0-0.4c0.6,0.6,1,0.4,1.1,0.3
		c0.2-0.2,0.4-0.2,1.2,0.4c0,0,0,0,0,0c0.1,0,0.2-0.1,0.3-0.1c0,0,0,0,0,0c-0.1-0.1-0.4-0.5-0.7-0.6c-0.1,0.3-1.3-0.2-1.5-0.6
		c-0.5,0.2-1.1-0.1-1.3,0.1c-0.4,0-0.8,0.1-1.2,0c0,0-0.1,0-0.1,0c0.1,0,0.2,0,0.3-0.1c-0.2-0.1-0.6-0.5-0.9-0.4
		c-0.3,0-0.7,0.1-1.2,0c0,0,0,0,0,0c-0.3-0.1-0.6-0.2-1-0.3c-0.4-0.1-0.7-0.2-1.1-0.4c0.3,0,0.6,0,0.9,0c0,0.1,0.2,0.1,0,0.2
		c0.3-0.2,1-0.2,1.3-0.3c0.5-0.3,1.1,0,0.9,0.6c0.1-0.2,1.6-0.5,1.9-0.7c-0.8,0.1-1.7,0.5-2.1-0.1c0.5-0.1,1.1-0.2,1.9-0.1
		c0.6-0.1,1,0.4,1.3,0.3c0.3,0,0.9-0.4,1.3,0.2c0.5,0.5,0.7,0.3,1.8,0.4c-0.3-0.9-0.8,0-1-0.7c0-0.1,0.1-0.1,0.2-0.1
		c-0.1-0.2-0.3-0.4-0.7-0.6c0.5,0.3,1.4-0.2,1.3-0.4c0.2-0.1,0.4-0.3,0.8-0.2c-0.5-0.2-0.9-0.4,0-0.6c0,0,0,0,0-0.1
		c0.1,0,0.1,0,0.2,0c0.1-0.5-1.1-0.2-1.5-0.6c-0.1,0-0.1,0-0.2,0c0,0,0,0,0.1,0c0.1,0.6-0.4,0.7-1.1,0.2c0-0.2,0.1-0.3,0.2-0.4
		c-0.2-0.1-0.2-0.4-0.2-0.8c-0.7-0.3-2,0-1.7,0.4c0.4,0.1,1.3,0.1,1.6-0.1c-0.3,0.2-0.6,0.3-1.1,0.3c-0.4-0.2-0.7,0-1.7,0
		c-0.4,0-1-0.1-1.6-0.1c-0.6,0-1.3-0.1-1.8,0.1c-0.2-0.6,0.7,0.1,0.6-0.4c0.5,0.1,1,0.4,1.7,0.1c0,0,0,0,0,0c0.6,0,1-0.2,1.8-0.1
		c-1-0.3-1.2-0.2-2.3-0.4c-0.6-0.2-1.3-0.2-1.8-0.8c0.1,0.4-0.1,0.4-0.8,0.2C80,92.9,79.3,92.8,79,93c-0.2-0.6,0.9,0,0.6-0.5
		c-2.3,0.3-6.4,0.2-8.8,0.1c0.1,0.1,0.1,0.2-0.1,0.4c-0.1-0.6-1.3-0.4-0.7-0.4c-0.1,0.5-1.2,0.5-2.3,0.7l0,0c-2,0.3-4,0.5-5.9,0.9
		c0.3-0.1,0.6-0.2,0.9-0.3c1.6-0.5,3.3-0.6,5-1.1c-0.6-0.2-1.1,0-1.8-0.5c-4.6,1-9,2.5-13.3,4.5c-0.9,0.4-1.8,0.9-2.6,1.3
		c-0.8,0.4-1.6,0.9-2.4,1.4c-0.2,0.1-0.4,0.2-0.5,0.3c-0.2,0.1-0.4,0.2-0.6,0.4c-0.4,0.3-0.7,0.6-1.1,0.8c-0.3,0.2-0.6,0.2-0.7,0.3
		c-0.2,0.1-0.3,0.2-0.5,0.3c-0.1,0.1-0.2,0.3-0.4,0.5c0,0-0.1,0-0.1,0.1c0,0,0,0,0,0c-0.2,0.1-0.5,0.3-0.8,0.5
		c-0.3,0.2-0.6,0.4-0.7,0.6c-0.6,0.1-1.3,0.3-1.5,1.3c-0.7,0.3-1.2,0.6-1.5,1.2c-0.1,0.1-0.2,0.2-0.3,0.3c-0.2,0.2-0.5,0.4-0.8,0.6
		c-0.1,0.1-0.3,0.3-0.4,0.5c0,0,0,0-0.1,0.1c-0.3,0.4-0.6,0.8-1.2,1.4c0,0.1,0,0.2-0.2,0.4c0.4-0.2,0.7-0.6,1-0.9
		c0.4-0.4,0.9-1.1,1.2-1.1c0.5-0.4,1.1-0.4,1.3-0.9c0.2-0.2,0.9-0.7,1.2-0.9c-0.1,0-0.2,0-0.3,0.1c-0.4,0.2-0.6,0.7-0.7,0
		c0.3,0,0.7-0.1,0.9-0.2c0.1-0.1,0.2-0.1,0.2-0.2c0,0,0,0,0,0c-0.2,0,0.7-0.6,0.9-0.8c0,0,0,0,0-0.1c0.3-0.6,0.8-0.5,1-0.8
		c0.6-0.3,0.5-0.7,1-0.7c0.4,0,0.6-0.4,0.8-0.5c0-0.4,0.9-0.3,1-0.6c0,0,0-0.1,0-0.1c0.1-0.1,0.2-0.2,0.4-0.3c0.6-0.2,1-0.6,1.5-0.7
		c0.8-0.5,1.6-0.9,2.5-1.4c1.7-0.9,3.3-1.7,4.4-2.1c1-0.5,5.3-1.9,3.4-1.1c-1.4,0.5-2.8,1.1-4.2,1.8c-0.1,0-0.1,0-0.1,0
		c-1,0.5-2.1,1-3.1,1.6c-1,0.6-2,1.1-3,1.8c-1.3,0.3-1.9,1.2-2.9,1.9c-0.4,0.3-1.2,0.5-1.5,0.9c-0.1,0.3-0.5,0.5-0.8,0.6
		c0.2-0.1,0.3-0.1,0.4-0.2c-0.4,0.4-0.7,0.7-1,0.9c-0.3,0.2-0.8,0.2-1,0.7c-0.4,0-0.6,0.3-0.9,0.7c-0.4,0.2-0.5,0.5-0.9,0.9
		c-0.1,0.3-0.6,0.4-0.8,0.7c-0.3,0.1-0.5,0.4-0.9,1c-1.1,0.3-0.9,0.7-1.3,1.2c-0.3,0.1-0.8,0.4-0.9,0.8c-0.5,0.3-0.7,0.7-1.1,1
		c-0.3-0.1-0.4,0.4-0.8,0.8c0.2-0.1,0.3-0.1,0.5-0.2c0.2-0.3,0.6-0.4,0.9-0.8c-0.1,0.2-0.1,0.4-0.2,0.4c0.1-0.1,0.3,0,0.4,0
		c0,0-0.1,0.1-0.1,0.1c0,0-0.1,0-0.2,0c0.1,0,0.1,0.1,0.2,0.1c0,0,0,0,0,0.1c0,0,0,0,0-0.1c0.1,0.2-0.3,0.5-0.2,0.3
		c-0.4-0.2-0.9,1-0.7,0.7c-0.4,0.7-0.3,0.6-0.7,0.9c-0.2,0.1-0.5,0.7-0.8,0.7c-0.2,0.4-0.9,0.6-0.8,0.8c-0.3,0.5-0.6,0.7-0.6,0.8
		c0,0.1-0.1,0.2-0.1,0.3c0,0,0,0,0,0c0.3-0.3,0.6-0.5,0.9-0.8c-0.1,0.3-0.2,0.6-0.3,0.7c-0.1,0-0.3,0.3-0.4,0.6
		c0.7-0.4,0.4-0.4,0.8-1c0.6-0.4,0.7-1,1-1.1c0.4-0.3,0.5-0.6,0.7-0.9c0,0,0.1,0.1,0,0.4c-0.1,0.1-0.1,0.2-0.2,0.2
		c-0.3,0.4-0.6,0.7-0.8,1.2c-0.8,0.1-0.7,0.9-0.9,1.1c0,0.2-0.1,0.3-0.2,0.4c-0.2,0-0.4,0.1-0.3,0.3c-0.2,0.1-0.3,0.3-0.4,0.5
		c-0.6,0.5-0.6,0-0.4,0.6c0.1,0.1,0,0.2,0,0.3c0,0.1,0.1,0.1,0.1,0.2c0-0.1,0.2-0.3,0.3-0.5c-0.1,0.2-0.2,0.3-0.2,0.5c0,0,0,0,0,0
		c0,0,0,0,0,0c0,0,0,0,0,0c0,0,0,0,0,0c0,0,0,0,0,0.1c-0.4,0.8-0.5,0.8-0.8,1.2c-0.3,0.1-0.8,0.9-0.9,1.3c-0.2,1.3-0.6,1.1-0.7,1.2
		c-0.1,0.2-0.2,0.6-0.4,0.9c-0.1,0.5,0,0.4,0.4,0.8c-0.1,0.4-0.6,0.7-0.7,1.2c-0.3,0.2-0.4,0.5-0.1,0.9c0.1,0.5,0.2,1.1-0.2,1.3
		c0-0.1-0.3,0,0.5,0.2c-0.4,0.1-0.2,0.8-0.5,1.2c-0.5-0.4-0.2,0.4,0,1.2c0-0.7,0.7,0.1,1-0.1c0.7,1-0.8,0.9,0.3,1.5
		c0.3-0.2,0.6-0.1,0.6-0.8c0.4,0.1,0-1.1,0.3-1.2c0.7-0.3,0.3-0.3,0.5-0.9c0.6-0.5,0.6-0.4,0.9-0.9c0,0.1-0.2-0.8,0-1
		c0.3-0.4,0.2-0.9,0.6-1c0.2-0.4,0.9-0.8,1-1.4c0.1-0.7,0.6-0.8,0.8-1.5c0.2-0.6,1-0.7,1.1-1.3c0.2-0.3,0.4-0.9,0.9-1.5
		c0-0.6,0.4-0.7,1.1-1.3c0.4-0.4,0.9-1.1,1.2-1.3c0.5-0.6,1-0.2,1.2-1.1c0.6-0.5,0.5-0.7,1.2-1.3c0.1-0.1,0.7-0.1,1.2-0.5
		c0.1-0.3,0.6-0.7,0.9-0.8c0.3-0.1,0.5-0.7,1.1-0.9c0.3-0.1,0.8-0.5,1.2-0.8c0.5-0.2,0.7-0.5,0.9-0.8c-0.3-0.1-0.4,0.3-0.5,0
		c0.6-0.1,1.6-1,1.1-1c0.2-0.2,0.4-0.3,0.7-0.5c0-0.1,0-0.2,0.1-0.3c1.2-1,2.4-1.9,3.6-2.8c0.1,0,0.1,0,0.2-0.1
		c0.1,0,0.2-0.1,0.2-0.2l0.2-0.2c1.2-0.7,2.5-1.3,3.7-1.9c4.1-1.5,8.1-2.7,12.2-3.8c1.8-0.3,3.5-0.5,5.1-0.6l-0.1-0.1
		c0.1-0.7,0.1,0.1,0.4-0.2c0-0.5,2.3,0.7,1.8-0.5c-1.2,0.2-3.6,0.4-5.7,0.6l0.1-0.1c1.1-0.1,1.9-0.3,3-0.5l0.1,0.1l0.1-0.1
		c0.4-0.1,0.9-0.1,1.4-0.2l0.5,0c-0.2,0.1-0.4,0.1-0.1,0.1c0.1,0,0.2,0,0.3,0c0.6,0.1,1.2,0.2,1.6,0.6c-0.3-0.4,1.1,0.2,0.8-0.3l0,0
		c-0.2,0.1-0.5,0.1-0.4-0.1l0.4,0.1l0,0l0,0c0.9,0.3,1.9,0.4,1.3-0.1c1.5,0.2,2.4,0.2,4.2,0.4c-1.1-0.6-3-0.2-3.7-0.9
		c0.7,0,1.5,0.2,2.3,0.3c0.8,0.1,1.3,0.3,2-0.1c-0.4-0.1-1-0.1-1.4-0.1c-0.5-0.1-0.9-0.1-1.4-0.2c0.6,0,1.1,0.1,1.6,0
		c-0.3,0-0.7-0.1-1-0.3l0.2,0c0,0-0.1-0.1-0.2-0.1c0.5,0,1,0.1,1.6,0.1c-0.2,0-0.3,0.1-0.5,0.1c0.6-0.1,1.5,0.3,2.1,0.1
		c0.2,0.1,0.7,0.2,0.9,0.2c0.4-0.2,0.7,0.2,1.3,0.2c0,0,0.1,0,0.1,0.1c-0.1,0-0.2,0.1-0.3,0.1c-0.6-0.2-0.9,0.1-1.2-0.1
		c-0.4-0.1-0.9,0.2-1.2,0.1c0.2,0.1,0.3,0.1,0.4,0.2c-0.5-0.1-0.9-0.1-1.3-0.1c0,0.1-0.2,0.4,0,0.6c0.1-0.2,0.8,0,1.4,0
		c0.7,0.1,1,0.3,1.5,0c-0.3-0.2-0.3-0.2-1.3-0.5c0,0-0.1,0-0.1,0c0.4,0.1,0.8,0,1.2,0c0.9-0.1,1.1,0.3,0.4,0.4
		c0.2,0.1,0.3,0.2,0.4,0.2C85,101.1,85.1,100.6,85.7,101.4z M85.9,99C86.4,99,86.5,99.1,85.9,99L85.9,99z M83.7,98.6
		c-0.1,0-0.2,0-0.3,0C83.4,98.5,83.5,98.5,83.7,98.6z M32,117.2c0.3-0.3,0.4-0.6,0.8-1.1c0.2-0.3,0.4-0.4,0.5-0.5
		c-0.1,0.2-0.2,0.3-0.2,0.4c-0.2,0.2-0.3,0.4-0.4,0.6c0,0,0,0.1-0.1,0.1c0,0-0.1,0.1-0.1,0.1c0,0,0.1,0,0.1-0.1c0,0.1,0,0.2,0.1,0.4
		c-0.1,0.5-0.1,0.2-0.5,0.1c0,0,0-0.1,0.1-0.1c-0.1,0.1-0.2,0.2-0.4,0.3c0,0-0.1,0.1-0.2,0.1C31.7,117.5,31.8,117.4,32,117.2z
		 M31.6,118c0,0.1-0.1,0.3-0.3,0.5c-0.1,0-0.2,0.2-0.4,0.3c0.1-0.1,0.1-0.1,0.1-0.2C31,118.4,31.1,118.5,31.6,118z M28,126
		c-0.1,0.1-0.3,0.2-0.4,0.3c0.1-0.2,0.2-0.3,0.3-0.5c0,0,0.6-0.4,0.8-0.7C28.8,125.3,28.5,125.4,28,126z M33.9,117.2
		c0,0-0.1,0-0.1,0c-0.5,0-0.5,0.4-0.3,0.6c-0.1,0.1-0.3,0.2,0.1,0.1c-0.3,0.1-0.1,0.2-0.5,0.7c-0.3,0.3-0.6,1-1,1.3
		c-0.4,0.7-0.9,1.5-1.1,1.5c0,0,0-0.1-0.1-0.1c0,0,0,0.1,0,0.1c0,0-0.1-0.1-0.1-0.2c0,0.1-0.3,1-0.5,1.2c-0.1,0.7-0.3,1-0.8,1.3
		c0,0.4-0.2,0.5-0.4,0.6c0.3-0.5,0.5-1,0.4-1.3c-0.6-0.2-0.6,1.5-0.7,0.8c-0.1-0.7,0.1-0.8,0.7-1.3c0-0.4,0.3-0.8,0.8-1.1
		c0.2-0.1,0.3-0.2,0.4-0.4c0,0.1,0,0.1,0.1,0.2c0,0,0,0.1,0.1,0.1c0-0.1,0-0.3,0.1-0.5c0.2-0.2,0.3-0.5,0.4-0.5
		c0.4,0,0.3-0.6,0.6-1.2c0.5-0.2,0.9-0.7,0.9-1.2c-0.2-0.2,0.3-0.7,0.6-1c0,0.1,0.2,0.1,0.1,0c0.5,0.3,0-0.3,0.7-0.7
		c-0.4,0.5-0.1,0,0.1,0.6C34.3,117,34.1,117,33.9,117.2z M34.5,114.5c-0.1,0.1-0.3,0.3-0.5,0.4c0.2-0.3,0.3-0.8,0.5-0.7
		C34.5,114.4,34.1,114.8,34.5,114.5z M33.6,114.7c0.3-0.7,0.8-0.7,0.9-0.9c0,0,0,0,0,0C34.2,114.1,33.8,114.5,33.6,114.7z
		 M86.8,96.1c-0.1,0-0.2,0-0.3,0c0.1,0,0.3-0.1,0.4-0.1c0.1,0,0.2,0.1,0.3,0.1C87.1,96,86.9,96.1,86.8,96.1z M88.8,94.9
		c0.7-0.2,0.5,0,0.1,0.3C88.8,95,88.6,94.7,88.8,94.9z M84.6,94.5c0.5,0,0.8,0.2,1.3,0.1c0.7,0,1.3,0.2,1.6,0.3
		c0.3,0,0.9,0.7,1.4,0.4c-0.2,0.2-0.4,0.4-0.5,0.5C88.3,96,87.4,95.2,87,95c-1.1-0.4-1.4-0.1-2.1-0.1c-0.2-0.7-1.5,0.1-1.5-0.5
		C83.6,94.5,84.1,94.5,84.6,94.5z M81.4,94.7c0.6,0.1,0.8,0,1.8,0c0.1,0.1,0.1,0.1,0.1,0.2c0,0,0,0,0,0c0.4-0.1,1,0.1,1.5,0.3
		c0.4,0.2,0.7,0.4,1.2,0.2c0.5,0,0.8-0.2,0.7,0c-0.3,0.1-0.9,0-1.5,0.2c0.1,0.1,0.2,0.1,0.2,0.2c-0.2,0-0.3,0-0.4,0.1
		c0.1-0.4,0.1-0.6-0.3-0.7c0.3,0.6-0.1,0.5-0.4,0.7c-0.6,0.1-0.7,0-0.7-0.3c0,0,0.1,0,0.1-0.1c-0.1-0.1-0.3-0.1-0.4-0.2
		c0-0.1,0-0.2,0-0.2c-0.1,0.1-0.2,0.2-0.3,0.1c-0.9,0.2-1.4-0.3-2-0.2c-0.8,0-1.3-0.1-2.1-0.2c0.2,0,0.5-0.1,0.7-0.2l0-0.1
		C80.1,94.5,80.7,94.7,81.4,94.7z M78.9,94.1c0.3-0.2,0.5,0,0.8,0l-0.1,0.1C79.3,94.1,79.1,94.1,78.9,94.1z M79.7,94.2
		c-0.1,0,0-0.1,0-0.2c0.2,0,0.2-0.1,0.3-0.2c-0.3-0.1-0.5-0.2-0.8-0.2c0.4,0,0.9,0.1,1.2,0.1c0.3,0.1,0.8,0,1.3,0.1
		C80.9,93.8,80.7,94.2,79.7,94.2z M76.8,93.1c0.9-0.2,1.9-0.1,2.9,0c0.9,0.2,1.9,0.3,3,0.6c0.2,0.1,0.4,0.1,0.5,0.2
		c-0.6-0.1-1.1-0.2-1.8-0.3c-0.7,0.1-1.5-0.1-2.3-0.3C78.4,93.2,77.6,93.1,76.8,93.1L76.8,93.1z M78.9,94.6c-0.2,0-0.3,0-0.5,0
		L78.9,94.6z M76.8,93.5c0.4,0,0.9,0,1.3,0.1c-0.4,0-0.8,0.1-1.2,0.1c-0.1,0-0.3-0.1-0.4-0.1C76.7,93.6,76.8,93.6,76.8,93.5z
		 M78.3,95l0.3,0c-0.3,0.1-0.6,0.3-0.9,0.3c-0.4,0-0.8,0-1.3-0.1C77,94.9,77.7,95,78.3,95z M73.8,93.4c0.1,0,0.3,0,0.4,0.1
		c0,0-0.1,0-0.2,0.1C73.9,93.5,73.8,93.4,73.8,93.4L73.8,93.4z M74.8,93.5c-0.3,0.1-0.5,0.1-0.8,0L74.8,93.5z M73.4,93.4L73.4,93.4
		L73.4,93.4L73.4,93.4z M68.5,100.3L68.5,100.3L68.5,100.3L68.5,100.3z M68.4,100.1c-0.1,0-0.2,0-0.1-0.2l0.3-0.1
		c0,0,0.1,0.1,0.1,0.1C68.6,100.1,68.5,100.1,68.4,100.1z M69.6,100L69.6,100C69.6,100,69.5,100,69.6,100l-0.2,0
		c-0.1,0-0.2-0.2-0.2-0.3l0.2,0l0.4,0c0.4,0.1,0.4,0.1,0.5,0.2C70.1,99.9,69.8,100,69.6,100z M70.5,94l-0.6,0.1l-0.1,0l0.5-0.1
		c-0.2,0-0.4-0.1-0.6-0.1l0.1,0c0.4,0.1,1.2-0.4,1.1,0L70.5,94z M73.5,99.6c-0.7,0-1.4,0-2.1,0.1l-0.3,0l0.1,0l-0.3,0l-0.1-0.2
		l0.4,0l0.2-0.1l0.2,0c0.6,0,1.3-0.1,1.9-0.1c0.6,0,1.1-0.1,1.7-0.2c0.3,0,0.6,0.1,1,0.1C75.3,99.4,74.4,99.6,73.5,99.6z M75.8,99.5
		c0.1-0.2,0.7,0,0.8-0.1c0.5,0.1,0.9,0.1,1.4,0.2C77.3,99.5,76.5,99.5,75.8,99.5z M78.7,98c-0.3,0-0.6-0.1-0.9-0.1l-0.2-0.1l0.4-0.1
		c0.3,0.1,0.6,0.2,0.8,0.1C78.7,98,78.7,98,78.7,98z M78.5,95.5c0-0.2,0.7-0.4,0.8-0.3l-0.1-0.1c0.4,0.1,0.6,0.2,1.2,0.2
		c0.1,0,0.2,0,0.2,0.1c-0.2,0-0.5,0-0.6,0c-0.5,0-0.9,0-1.1,0.2L78.5,95.5z M80.5,95.6c0.2,0,0.4-0.1,0.5-0.1c0.1,0,0.3,0,0.4,0
		c0.2,0,0.4,0,0.6,0.1c0.4,0.3,0.5,0.4,1.2,0.1c0,0.1,0,0.3-0.2,0.3c-0.6,0-0.9-0.1-1.3-0.4c-0.6,0.1-0.8,0.1-1.3,0.1
		c-0.6-0.1-1-0.2-1.5-0.2C79.4,95.4,80,95.5,80.5,95.6z M79.4,97.1L79,96.9l0.4-0.1l0,0c0.6-0.2,1.1-0.1,1.9,0.1
		c0.2-0.4,1.4-0.1,1.8,0c0.2,0-0.6,0.4-0.9,0.5c-0.4,0.1-0.9,0-0.9-0.5c0.1,0.7-1.2-0.1-0.8,0.5c0.2-0.1,0.4-0.3,0.5,0
		c-0.5,0.1-0.7,0.1-1-0.1C79.8,97.2,79.6,97.1,79.4,97.1z M88.4,100.6c-0.2,0-0.2,0.2-0.2,0.3c-0.3,0,0-0.1-0.5-0.1
		c0,0,0.1,0,0.1,0.1c-0.2,0-0.4-0.1-0.4-0.3C87.7,100.7,88,100.6,88.4,100.6z M86,100.3c-0.1,0-0.1,0-0.2,0c0,0-0.1,0-0.1-0.1
		C85.8,100.3,85.9,100.3,86,100.3z"/>
</g>
</svg>
